<?xml version="1.0" standalone="no"?>
<!DOCTYPE svg PUBLIC "-//W3C//DTD SVG 20010904//EN"
 "http://www.w3.org/TR/2001/REC-SVG-20010904/DTD/svg10.dtd">
<svg version="1.0" xmlns="http://www.w3.org/2000/svg"
 width="256.000000pt" height="256.000000pt" viewBox="0 0 1024.000000 1024.000000"
 preserveAspectRatio="xMidYMid meet">

<g transform="translate(0.000000,1024.000000) scale(0.100000,-0.100000)"
fill="#8B0000" stroke="none">
<path d="M4385 10103 c-270 -7 -902 -52 -1230 -89 -526 -58 -978 -161 -1135
-257 -76 -47 -141 -121 -140 -159 1 -7 9 3 20 23 25 47 85 100 150 133 55 28
64 31 56 18 -2 -4 7 -8 22 -9 l27 -2 -25 11 c-24 9 -21 12 46 38 240 93 775
182 1414 234 286 24 653 46 791 47 68 1 158 5 199 9 l75 7 -85 -1 c-47 0 -130
-1 -185 -3z"/>
<path d="M5758 10093 c23 -2 61 -2 85 0 23 2 4 4 -43 4 -47 0 -66 -2 -42 -4z"/>
<path d="M5943 10083 c20 -2 54 -2 75 0 20 2 3 4 -38 4 -41 0 -58 -2 -37 -4z"/>
<path d="M6127 10073 c18 -2 50 -2 70 0 21 2 7 4 -32 4 -38 0 -55 -2 -38 -4z"/>
<path d="M6278 10063 c18 -2 45 -2 60 0 15 2 0 4 -33 4 -33 0 -45 -2 -27 -4z"/>
<path d="M6403 10053 c15 -2 39 -2 55 0 15 2 2 4 -28 4 -30 0 -43 -2 -27 -4z"/>
<path d="M6518 10043 c18 -2 45 -2 60 0 15 2 0 4 -33 4 -33 0 -45 -2 -27 -4z"/>
<path d="M6653 10033 c15 -2 37 -2 50 0 12 2 0 4 -28 4 -27 0 -38 -2 -22 -4z"/>
<path d="M6800 10020 c58 -8 156 -13 149 -6 -2 2 -49 6 -104 9 -72 4 -85 3
-45 -3z"/>
<path d="M5280 9975 l0 -35 -185 0 -185 0 0 -35 0 -35 230 0 230 0 0 70 0 70
-45 0 c-45 0 -45 0 -45 -35z"/>
<path d="M7005 10000 c84 -14 289 -40 310 -39 30 2 -203 36 -287 42 -62 5 -65
5 -23 -3z"/>
<path d="M4425 9993 c-33 -1 -184 -7 -335 -13 -400 -16 -890 -56 -890 -72 0
-4 20 -6 45 -3 48 5 64 -11 18 -18 -23 -3 -21 -4 9 -6 31 -1 39 -5 44 -27 11
-44 -1 -327 -14 -332 -7 -2 -12 -21 -12 -42 0 -21 -4 -42 -10 -45 -5 -3 -10
-22 -10 -41 0 -24 -5 -34 -15 -34 -14 0 -17 -4 -19 -32 -1 -7 -19 -18 -41 -25
l-40 -11 47 -1 c26 -1 80 3 120 9 180 24 1081 66 1246 58 l72 -3 0 323 0 322
-77 -2 c-43 -1 -105 -3 -138 -5z"/>
<path d="M7353 9953 c9 -2 25 -2 35 0 9 3 1 5 -18 5 -19 0 -27 -2 -17 -5z"/>
<path d="M7435 9940 c17 -4 41 -8 55 -8 22 0 22 1 -5 8 -16 4 -41 8 -55 8 -22
0 -22 -1 5 -8z"/>
<path d="M7590 9914 c36 -7 74 -13 85 -12 11 0 -9 6 -45 14 -36 7 -74 13 -85
12 -11 0 9 -6 45 -14z"/>
<path d="M3118 9903 c12 -2 30 -2 40 0 9 3 -1 5 -23 4 -22 0 -30 -2 -17 -4z"/>
<path d="M3018 9893 c12 -2 32 -2 45 0 12 2 2 4 -23 4 -25 0 -35 -2 -22 -4z"/>
<path d="M7708 9893 c6 -2 18 -2 25 0 6 3 1 5 -13 5 -14 0 -19 -2 -12 -5z"/>
<path d="M2899 9886 c-2 -2 -65 -11 -139 -21 -74 -9 -198 -30 -275 -47 -77
-16 -158 -34 -180 -39 -22 -4 -80 -19 -129 -33 -67 -19 -94 -22 -109 -15 -14
8 -22 7 -31 -2 -6 -6 -6 -9 -1 -6 6 3 17 2 25 -4 13 -7 13 -9 0 -10 -46 -5
-58 -7 -78 -18 -12 -6 -22 -16 -22 -22 0 -6 6 -7 13 -3 9 5 9 4 -1 -7 -10 -11
-8 -16 10 -27 13 -8 15 -11 6 -8 -12 3 -18 0 -18 -9 0 -8 4 -15 10 -15 5 0 9
-3 8 -7 -1 -5 4 -28 11 -53 7 -25 10 -64 7 -90 -3 -25 -6 -110 -7 -189 -1 -80
-6 -155 -11 -167 -13 -27 -64 -49 -71 -31 -2 7 -3 5 -2 -4 1 -9 -2 -24 -7 -34
-22 -38 -28 17 -30 285 l-3 275 -2 -268 c-2 -169 1 -283 7 -308 17 -62 68
-111 150 -144 66 -27 70 -30 70 -60 0 -43 18 -64 70 -79 l45 -13 3 -56 3 -56
-71 -77 c-236 -254 -319 -421 -351 -709 -14 -126 -3 -237 36 -348 l25 -74 0
-2505 0 -2506 -31 -79 c-29 -71 -32 -91 -37 -215 -22 -598 290 -1340 654
-1556 252 -150 890 -272 1739 -333 572 -40 1499 -37 2040 7 811 66 1342 178
1591 335 110 70 278 280 381 479 150 289 234 608 249 945 8 161 -5 261 -42
331 l-24 45 0 2531 0 2531 27 76 c26 71 28 87 28 236 0 182 -14 263 -72 409
-60 152 -106 219 -249 366 l-93 95 -7 62 -7 63 49 21 c58 26 64 33 64 79 0 34
2 36 67 59 73 26 163 102 163 137 0 14 -5 10 -16 -13 -21 -42 -65 -75 -137
-101 -72 -27 -78 -27 -100 3 -17 24 -17 24 22 45 22 11 48 20 56 20 36 0 5 26
-56 48 -282 102 -1253 203 -2176 228 l-253 7 0 -896 0 -897 323 -1 c177 -1
325 -1 329 0 4 0 191 1 415 1 225 0 526 5 670 12 145 6 265 9 268 6 9 -9 18
-5155 9 -5161 -40 -25 -867 -90 -1414 -111 -954 -37 -1890 -32 -2755 14 -218
12 -854 57 -933 66 l-52 6 2 2587 3 2586 1043 -4 1042 -4 1 829 c0 456 1 859
2 896 l2 68 -195 -6 c-499 -13 -1029 -40 -1275 -64 -55 -5 -174 -17 -265 -25
-294 -28 -744 -111 -821 -151 -17 -8 -33 -13 -35 -11 -7 7 80 45 133 58 59 15
59 15 42 36 -7 10 -9 15 -4 10 4 -4 15 -1 24 7 9 7 26 16 39 19 19 4 21 3 11
-9 -9 -11 -8 -14 9 -14 11 0 27 6 34 13 7 8 19 12 27 9 8 -3 11 0 7 6 -4 7 8
11 34 10 22 0 47 5 55 12 8 7 15 10 15 7 0 -3 21 2 48 10 26 8 85 19 132 24
148 18 328 46 345 54 10 5 -65 0 -172 -12 -63 -7 -113 10 -113 39 0 13 -4 17
-12 12 -10 -6 -10 -4 0 8 10 13 10 17 0 21 -10 4 -10 6 0 6 15 1 17 128 1 133
-14 5 -13 332 1 336 13 5 13 32 0 32 -5 0 -10 4 -10 9 0 5 9 7 20 4 14 -4 20
0 20 10 0 12 9 14 40 10 24 -3 40 -2 40 5 0 5 11 12 25 14 13 3 22 1 19 -3 -3
-5 0 -9 5 -9 6 0 11 4 11 9 0 4 24 13 53 18 l52 10 -41 2 c-22 0 -43 -1 -45
-3z m-899 -236 c0 -5 -5 -10 -11 -10 -5 0 -7 5 -4 10 3 6 8 10 11 10 2 0 4 -4
4 -10z m126 -741 c3 -6 1 -16 -6 -22 -10 -9 -11 -9 -5 2 4 8 2 17 -6 22 -9 6
-10 9 -2 9 6 0 15 -5 19 -11z m5861 -216 c-3 -10 -5 -4 -5 12 0 17 2 24 5 18
2 -7 2 -21 0 -30z m-1427 -138 c151 -8 304 -18 340 -22 l65 -8 -45 -5 -45 -6
40 -8 c22 -5 43 -13 46 -18 3 -5 15 -10 26 -11 14 -1 19 -6 15 -19 -4 -15 3
-18 44 -19 27 -1 52 -1 56 0 5 0 7 -2 7 -7 -1 -4 -1 -14 0 -22 1 -13 2 -13 11
0 6 10 10 11 10 3 0 -9 18 -13 53 -14 28 0 46 -3 40 -6 -10 -3 -9 -8 2 -20 8
-8 15 -25 15 -38 0 -18 -6 -24 -27 -27 -25 -3 -22 -6 22 -20 71 -23 48 -22
-90 6 -66 14 -153 30 -193 36 -40 7 -71 14 -69 16 4 5 141 -13 201 -26 22 -5
43 -7 48 -4 15 9 8 33 -11 39 -10 3 -29 15 -42 26 -20 18 -32 19 -81 14 -52
-6 -58 -5 -58 12 0 14 -2 15 -9 4 -6 -9 -29 -14 -64 -15 -59 0 -81 9 -57 24 8
5 11 12 7 16 -4 4 -12 3 -19 -4 -8 -8 -15 -6 -28 8 -15 17 -22 18 -48 9 -22
-8 -36 -7 -53 2 -12 6 -68 13 -123 15 -56 2 -143 6 -195 9 -83 6 -93 5 -87 -9
3 -9 9 -23 13 -32 5 -14 3 -15 -15 -5 -16 8 -22 21 -22 43 0 25 -3 29 -12 20
-19 -19 -28 -14 -28 12 0 18 -7 26 -22 29 -13 2 14 5 60 6 45 0 82 4 82 9 0 4
-80 7 -177 6 -127 -1 -155 1 -98 6 134 11 229 10 515 -5z m-607 -12 c-7 -2
-19 -2 -25 0 -7 3 -2 5 12 5 14 0 19 -2 13 -5z m233 -35 c4 -6 0 -16 -9 -23
-10 -7 -17 -17 -17 -24 0 -6 -8 -11 -17 -11 -10 0 -29 -3 -43 -6 l-25 -6 24
21 c13 12 32 21 42 21 10 0 19 5 19 11 0 5 5 7 10 4 6 -3 10 -2 10 4 0 5 -6
12 -12 14 -10 4 -10 6 -1 6 6 1 15 -4 19 -11z m287 -115 c-29 -2 -77 -2 -105
0 -29 2 -6 3 52 3 58 0 81 -1 53 -3z m600 -50 c-7 -2 -19 -2 -25 0 -7 3 -2 5
12 5 14 0 19 -2 13 -5z m355 -9 c41 -8 56 -42 32 -74 -10 -13 -16 -29 -14 -35
3 -8 -11 -7 -45 4 -29 9 -49 21 -47 27 3 6 0 16 -6 22 -14 14 -1 50 20 55 27
7 28 7 60 1z m902 -189 c0 -5 -5 -3 -10 5 -5 8 -10 20 -10 25 0 6 5 3 10 -5 5
-8 10 -19 10 -25z m29 -75 c0 -8 -6 0 -14 19 -8 18 -15 36 -15 40 1 13 29 -45
29 -59z m52 -233 c12 -105 7 -239 -11 -292 l-10 -30 5 30 c20 130 13 292 -20
455 -3 14 2 6 10 -18 7 -23 19 -89 26 -145z m-30 -354 c-12 -20 -14 -14 -5 12
4 9 9 14 11 11 3 -2 0 -13 -6 -23z m-21 -2148 l-5 -2120 -3 2107 c-2 1782 0
2162 12 2136 0 -2 -1 -957 -4 -2123z m-3 -2258 c-2 -23 -3 -1 -3 48 0 50 1 68
3 42 2 -26 2 -67 0 -90z m0 -264 c-2 -27 -3 -5 -3 47 0 52 1 74 3 48 2 -27 2
-69 0 -95z m0 -115 c-3 -8 -6 -5 -6 6 -1 11 2 17 5 13 3 -3 4 -12 1 -19z m30
-418 c59 -94 51 -434 -17 -724 -23 -99 -90 -310 -96 -304 -2 3 5 31 16 64 85
246 126 509 118 753 -4 118 -8 145 -31 202 -26 62 -27 73 -25 220 l2 154 6
-165 c4 -148 7 -169 27 -200z m-222 -77 c-10 -9 -29 -17 -44 -18 -74 -3 -86
-5 -72 -14 8 -5 9 -11 3 -15 -6 -3 -13 -2 -17 4 -10 16 -22 12 -28 -10 -4 -16
0 -20 22 -20 15 0 30 3 34 6 3 4 32 8 64 11 31 2 55 1 52 -2 -6 -6 -346 -71
-549 -105 -134 -22 -433 -51 -511 -48 -46 1 -48 2 -14 5 122 11 457 44 498 49
26 3 45 10 42 14 -3 5 1 11 7 14 7 4 2 4 -12 1 -61 -14 -108 -16 -116 -4 -5 8
0 10 17 6 13 -3 33 -1 44 3 12 6 -9 7 -55 4 -122 -7 -290 -26 -290 -33 0 -3
-24 -6 -52 -6 -29 0 -111 -3 -183 -7 -119 -6 -122 -5 -35 3 52 5 156 16 230
25 358 40 470 53 533 63 83 14 341 68 382 80 17 5 38 10 48 10 17 1 17 0 2
-16z m-758 -149 c-3 -3 -12 -4 -19 -1 -8 3 -5 6 6 6 11 1 17 -2 13 -5z m-122
-14 c3 -6 -1 -7 -9 -4 -18 7 -21 14 -7 14 6 0 13 -4 16 -10z m-426 -14 c-2 -2
-71 -6 -154 -8 -82 -3 -121 -2 -85 2 73 7 246 12 239 6z m-514 -32 c-110 -7
-231 -12 -270 -12 -38 1 9 7 105 13 96 6 218 12 270 12 63 0 28 -4 -105 -13z
m605 -14 c-8 -5 -42 -9 -75 -8 l-60 1 65 7 c36 4 70 7 75 8 6 1 3 -3 -5 -8z
m78 3 c-10 -2 -28 -2 -40 0 -13 2 -5 4 17 4 22 1 32 -1 23 -4z m-1055 -10
c-13 -2 -35 -2 -50 0 -16 2 -5 4 22 4 28 0 40 -2 28 -4z m790 -10 c-24 -2 -62
-2 -85 0 -24 2 -5 4 42 4 47 0 66 -2 43 -4z m-190 -10 c-24 -2 -62 -2 -85 0
-24 2 -5 4 42 4 47 0 66 -2 43 -4z m-243 -13 c-63 -4 -182 -7 -265 -7 l-150 1
160 6 c88 3 207 6 265 6 l105 1 -115 -7z m1910 -780 c-18 -38 -35 -69 -36 -67
-2 2 10 36 28 75 17 39 34 70 36 67 2 -2 -11 -36 -28 -75z m-57 -115 c-3 -9
-8 -14 -10 -11 -3 3 -2 9 2 15 9 16 15 13 8 -4z m-601 -511 c-13 -9 -26 -13
-29 -10 -4 3 -13 0 -22 -8 -21 -19 -77 -33 -67 -17 9 14 2 14 -114 -4 -52 -8
-108 -14 -125 -14 -16 1 24 10 90 20 66 10 149 24 185 32 36 8 74 15 85 16 18
1 18 0 -3 -15z m-142 -53 c-20 -11 -162 -42 -167 -37 -4 4 150 44 172 45 6 0
3 -3 -5 -8z m-267 -8 c-7 -2 -19 -2 -25 0 -7 3 -2 5 12 5 14 0 19 -2 13 -5z
m-70 -10 c-13 -2 -33 -2 -45 0 -13 2 -3 4 22 4 25 0 35 -2 23 -4z m-86 -9 c-3
-3 -12 -4 -19 -1 -8 3 -5 6 6 6 11 1 17 -2 13 -5z m-84 -11 c-7 -2 -19 -2 -25
0 -7 3 -2 5 12 5 14 0 19 -2 13 -5z m-120 -10 c-7 -2 -19 -2 -25 0 -7 3 -2 5
12 5 14 0 19 -2 13 -5z m-96 -9 c-3 -3 -12 -4 -19 -1 -8 3 -5 6 6 6 11 1 17
-2 13 -5z m-80 -10 c-3 -3 -12 -4 -19 -1 -8 3 -5 6 6 6 11 1 17 -2 13 -5z
m-324 -21 c-7 -2 -19 -2 -25 0 -7 3 -2 5 12 5 14 0 19 -2 13 -5z m760 0 c-7
-2 -19 -2 -25 0 -7 3 -2 5 12 5 14 0 19 -2 13 -5z m-60 -10 c-7 -2 -19 -2 -25
0 -7 3 -2 5 12 5 14 0 19 -2 13 -5z m-50 -10 c-7 -2 -21 -2 -30 0 -10 3 -4 5
12 5 17 0 24 -2 18 -5z m-80 -10 c-7 -2 -21 -2 -30 0 -10 3 -4 5 12 5 17 0 24
-2 18 -5z m-60 -10 c-7 -2 -21 -2 -30 0 -10 3 -4 5 12 5 17 0 24 -2 18 -5z
m-80 -10 c-13 -2 -35 -2 -50 0 -16 2 -5 4 22 4 28 0 40 -2 28 -4z m-100 -10
c-13 -2 -33 -2 -45 0 -13 2 -3 4 22 4 25 0 35 -2 23 -4z m-100 -10 c-13 -2
-33 -2 -45 0 -13 2 -3 4 22 4 25 0 35 -2 23 -4z m-143 -13 c-30 -5 -77 -8
-105 -7 l-50 0 60 7 c33 4 80 7 105 7 44 0 44 0 -10 -7z m-193 -17 c-20 -2
-52 -2 -70 0 -17 2 0 4 38 4 39 0 53 -2 32 -4z m-154 -10 c-18 -2 -48 -2 -65
0 -18 2 -4 4 32 4 36 0 50 -2 33 -4z m-190 -10 c-29 -2 -78 -2 -110 0 -32 2
-8 3 52 3 61 0 87 -1 58 -3z m-460 -10 c-128 -2 -338 -2 -465 0 -128 1 -24 2
232 2 256 0 360 -1 233 -2z"/>
<path d="M6403 8543 c15 -2 39 -2 55 0 15 2 2 4 -28 4 -30 0 -43 -2 -27 -4z"/>
<path d="M6530 8530 c-12 -8 -11 -10 8 -10 12 0 22 5 22 10 0 13 -11 13 -30 0z"/>
<path d="M6618 8533 c7 -3 16 -2 19 1 4 3 -2 6 -13 5 -11 0 -14 -3 -6 -6z"/>
<path d="M6248 8523 c6 -2 18 -2 25 0 6 3 1 5 -13 5 -14 0 -19 -2 -12 -5z"/>
<path d="M6748 8523 c7 -3 16 -2 19 1 4 3 -2 6 -13 5 -11 0 -14 -3 -6 -6z"/>
<path d="M6788 8523 c7 -3 16 -2 19 1 4 3 -2 6 -13 5 -11 0 -14 -3 -6 -6z"/>
<path d="M7880 2141 c-18 -5 -21 -8 -10 -12 8 -3 26 0 40 8 26 13 12 16 -30 4z"/>
<path d="M7824 2123 c15 -4 16 -7 5 -13 -7 -5 -10 -12 -6 -17 9 -9 28 17 21
29 -3 4 -13 7 -22 7 -14 -1 -14 -2 2 -6z"/>
<path d="M7710 2110 l-35 -7 30 -3 c30 -2 30 -2 5 -10 -21 -7 -17 -8 20 -9 25
0 52 4 60 10 13 9 12 10 -2 5 -10 -3 -26 -2 -35 2 -14 5 -12 8 12 13 26 6 26
7 5 7 -14 -1 -41 -4 -60 -8z"/>
<path d="M7770 9880 c14 -4 34 -8 45 -8 16 0 15 2 -5 8 -14 4 -34 8 -45 8 -16
0 -15 -2 5 -8z"/>
<path d="M7910 9845 c41 -14 82 -24 90 -24 19 1 -83 34 -130 43 -19 3 -1 -5
40 -19z"/>
<path d="M4910 9785 l0 -35 130 0 c123 0 130 -1 130 -20 0 -19 -7 -20 -130
-20 l-130 0 0 -33 0 -32 153 3 c166 4 197 13 197 57 0 19 6 26 28 30 68 14 77
20 80 52 l3 32 -230 1 -231 1 0 -36z"/>
<path d="M8040 9808 c134 -59 200 -94 239 -125 36 -28 40 -30 21 -9 -31 35
-116 85 -202 120 -64 25 -109 36 -58 14z"/>
<path d="M2178 9799 c-10 -5 -18 -19 -18 -29 0 -17 4 -18 33 -9 17 6 38 13 46
15 9 3 11 8 5 13 -16 16 -49 20 -66 10z"/>
<path d="M8328 9625 c5 -11 12 -27 15 -35 5 -13 6 -13 6 1 1 8 -6 24 -15 35
-15 19 -15 19 -6 -1z"/>
<path d="M4960 9585 c-42 -19 -50 -30 -50 -73 0 -46 14 -68 51 -81 69 -24 237
-5 277 32 31 29 29 77 -4 108 -23 22 -35 24 -132 27 -80 2 -116 -2 -142 -13z
m110 -70 c0 -41 -19 -53 -56 -37 -44 21 -24 72 28 72 25 0 28 -3 28 -35z m101
15 c5 0 9 -9 9 -20 0 -11 -4 -20 -9 -20 -5 0 -16 -3 -25 -6 -13 -5 -16 1 -16
26 0 25 3 31 16 26 9 -3 20 -6 25 -6z"/>
<path d="M8354 9300 c0 -151 2 -213 3 -137 2 75 2 199 0 275 -1 75 -3 13 -3
-138z"/>
<path d="M4633 9295 c0 -27 2 -38 4 -22 2 15 2 37 0 50 -2 12 -4 0 -4 -28z"/>
<path d="M5690 9295 c0 -27 2 -46 4 -44 8 8 10 78 3 85 -4 4 -7 -14 -7 -41z"/>
<path d="M4904 9273 l3 -38 84 -3 c110 -3 129 -8 129 -32 0 -19 -7 -20 -105
-20 l-105 0 0 -25 c0 -14 0 -28 0 -31 0 -3 101 -6 225 -8 l225 -2 0 33 0 33
-75 0 c-72 0 -75 1 -75 24 0 20 7 25 43 34 46 12 83 44 72 61 -4 7 -78 11
-215 11 l-210 0 4 -37z"/>
<path d="M2768 9233 c6 -2 18 -2 25 0 6 3 1 5 -13 5 -14 0 -19 -2 -12 -5z"/>
<path d="M3848 9233 c7 -3 16 -2 19 1 4 3 -2 6 -13 5 -11 0 -14 -3 -6 -6z"/>
<path d="M3468 9213 c6 -2 18 -2 25 0 6 3 1 5 -13 5 -14 0 -19 -2 -12 -5z"/>
<path d="M3533 9213 c9 -2 23 -2 30 0 6 3 -1 5 -18 5 -16 0 -22 -2 -12 -5z"/>
<path d="M3373 9203 c9 -2 23 -2 30 0 6 3 -1 5 -18 5 -16 0 -22 -2 -12 -5z"/>
<path d="M3213 9193 c9 -2 23 -2 30 0 6 3 -1 5 -18 5 -16 0 -22 -2 -12 -5z"/>
<path d="M8040 9110 c20 -9 22 -13 10 -21 -11 -8 -10 -9 8 -4 15 5 24 1 29
-10 6 -16 7 -16 16 0 12 22 0 32 -48 39 -34 6 -36 5 -15 -4z"/>
<path d="M2420 9100 l-25 -8 25 0 c14 0 39 4 55 8 l30 8 -30 0 c-16 0 -41 -4
-55 -8z"/>
<path d="M8120 9068 c0 -23 4 -29 15 -24 8 3 15 1 15 -4 0 -5 14 -23 31 -41
28 -29 34 -57 11 -52 -5 1 -9 -5 -7 -15 1 -9 -3 -20 -9 -24 -6 -4 -8 -9 -5
-12 2 -3 23 4 46 16 38 19 40 23 30 44 -5 13 -12 22 -15 19 -3 -2 -11 3 -17
12 -10 13 -10 20 1 31 8 7 14 21 14 30 -1 15 -2 15 -11 0 -11 -19 -59 -25 -59
-8 0 6 11 10 25 10 38 0 30 14 -20 32 l-45 17 0 -31z"/>
<path d="M2259 9081 c11 -7 11 -9 0 -14 -10 -4 -9 -6 4 -6 9 -1 17 6 17 14 0
8 -8 15 -17 15 -14 0 -15 -2 -4 -9z"/>
<path d="M4964 9080 c-42 -13 -55 -31 -57 -79 -1 -31 4 -47 21 -64 21 -20 31
-22 151 -22 123 0 131 1 155 24 39 37 31 101 -17 131 -27 16 -208 24 -253 10z
m210 -66 c9 -3 16 -12 16 -19 0 -20 -24 -25 -115 -25 -84 0 -102 7 -91 35 4
12 25 15 90 15 46 0 91 -3 100 -6z"/>
<path d="M7930 9076 c0 -2 11 -6 25 -8 13 -3 22 -1 19 3 -5 9 -44 13 -44 5z"/>
<path d="M8105 8910 c-3 -5 -2 -10 4 -10 5 0 13 5 16 10 3 6 2 10 -4 10 -5 0
-13 -4 -16 -10z"/>
<path d="M4940 8867 c-34 -17 -38 -55 -8 -79 21 -17 21 -19 3 -16 -15 2 -21
-3 -23 -23 -3 -23 1 -27 35 -32 21 -4 100 -7 176 -7 l137 0 0 35 0 35 -140 0
c-118 0 -140 2 -140 15 0 13 22 15 140 15 l140 0 0 35 0 35 -147 0 c-99 0
-156 -4 -173 -13z"/>
<path d="M4932 8674 c-22 -15 -30 -62 -16 -99 15 -39 112 -58 164 -32 14 7 33
29 43 50 11 25 24 37 37 37 31 0 38 -31 12 -48 -31 -21 -29 -52 4 -52 28 0 65
16 76 34 9 14 10 59 2 81 -8 21 -56 45 -89 45 -48 0 -95 -27 -110 -65 -12 -27
-21 -35 -40 -35 -33 0 -42 23 -21 55 9 14 14 30 11 35 -9 15 -48 12 -73 -6z"/>
<path d="M4970 8500 c-18 -5 -40 -16 -47 -26 -17 -24 -16 -75 2 -101 17 -25
90 -43 168 -43 113 1 167 31 167 92 0 42 -15 64 -51 77 -36 13 -187 13 -239 1z
m100 -80 c0 -26 -3 -30 -29 -30 -42 0 -61 9 -61 29 0 26 9 31 52 31 36 0 38
-2 38 -30z m101 20 c36 -20 18 -50 -30 -50 -13 0 -18 8 -18 30 0 32 14 38 48
20z"/>
<path d="M4953 8235 c-60 -26 -64 -134 -6 -156 33 -12 235 -11 270 2 35 13 43
25 43 72 0 51 -13 73 -51 86 -45 16 -217 13 -256 -4z m230 -64 c5 -5 7 -17 4
-25 -5 -13 -24 -16 -101 -16 -52 0 -97 4 -100 9 -9 14 4 39 22 45 27 8 164 -2
175 -13z"/>
<path d="M5186 8045 c-15 -11 -51 -15 -146 -15 -70 0 -129 -2 -132 -5 -2 -3
-3 -18 0 -35 l4 -30 174 0 c124 0 173 3 172 11 -5 21 20 20 27 0 5 -16 15 -21
39 -21 45 0 64 22 46 55 -17 31 -46 41 -75 25 -20 -11 -27 -10 -51 9 -31 25
-33 25 -58 6z"/>
<path d="M4910 7804 l0 -36 80 4 80 3 0 -31 c0 -20 9 -39 26 -55 23 -22 34
-24 112 -24 92 0 146 16 162 46 18 32 11 79 -15 104 -24 25 -24 25 -235 25
l-210 0 0 -36z m374 -30 c20 -8 20 -28 1 -44 -16 -13 -82 -15 -117 -4 -23 7
-23 30 0 43 19 11 91 14 116 5z"/>
<path d="M4910 7606 l0 -36 230 0 230 0 0 24 c0 13 -8 27 -17 31 -10 4 -114 9
-230 12 l-213 5 0 -36z"/>
<path d="M4945 7533 c-34 -5 -45 -18 -45 -50 0 -23 0 -23 178 -23 175 0 178 0
179 22 1 11 -2 29 -8 40 -9 16 -23 18 -142 17 -73 -1 -145 -4 -162 -6z"/>
<path d="M5280 7456 c0 -2 8 -10 18 -17 15 -13 16 -12 3 4 -13 16 -21 21 -21
13z"/>
<path d="M2602 7420 c0 -14 2 -19 5 -12 2 6 2 18 0 25 -3 6 -5 1 -5 -13z"/>
<path d="M5640 7426 c0 -2 8 -10 18 -17 15 -13 16 -12 3 4 -13 16 -21 21 -21
13z"/>
<path d="M5681 7384 c0 -11 3 -14 6 -6 3 7 2 16 -1 19 -3 4 -6 -2 -5 -13z"/>
<path d="M4720 7373 c0 -5 14 -24 31 -43 32 -36 28 -26 -9 24 -12 16 -22 25
-22 19z"/>
<path d="M3894 7338 l-29 -33 33 29 c30 28 37 36 29 36 -2 0 -16 -15 -33 -32z"/>
<path d="M6660 7363 c0 -6 8 -17 18 -24 16 -13 16 -13 2 6 -8 11 -16 22 -17
24 -2 2 -3 0 -3 -6z"/>
<path d="M5661 7334 c0 -11 3 -14 6 -6 3 7 2 16 -1 19 -3 4 -6 -2 -5 -13z"/>
<path d="M6040 7332 c6 -13 14 -21 18 -18 3 4 -2 14 -12 24 -18 16 -18 16 -6
-6z"/>
<path d="M4940 7321 c-122 -28 -208 -68 -288 -133 -40 -32 -78 -61 -85 -64 -7
-3 -21 -17 -31 -32 -19 -27 -19 -27 0 -12 10 9 37 31 60 50 22 19 52 45 67 57
34 29 150 87 202 102 225 65 468 49 684 -45 60 -27 75 -30 46 -11 -20 14 -148
63 -152 59 -2 -1 -20 5 -40 13 -98 38 -333 46 -463 16z"/>
<path d="M2620 7295 c13 -14 26 -25 28 -25 3 0 -5 11 -18 25 -13 14 -26 25
-28 25 -3 0 5 -11 18 -25z"/>
<path d="M4274 7298 l-19 -23 23 19 c21 18 27 26 19 26 -2 0 -12 -10 -23 -22z"/>
<path d="M7008 7313 c7 -3 16 -2 19 1 4 3 -2 6 -13 5 -11 0 -14 -3 -6 -6z"/>
<path d="M3810 7265 c-24 -25 -42 -45 -39 -45 3 0 25 20 49 45 24 25 42 45 39
45 -3 0 -25 -20 -49 -45z"/>
<path d="M5647 7291 c-4 -17 -3 -21 5 -13 5 5 8 16 6 23 -3 8 -7 3 -11 -10z"/>
<path d="M2998 7273 c5 -21 7 -23 10 -9 2 10 0 22 -6 28 -6 6 -7 0 -4 -19z"/>
<path d="M3859 7253 l-24 -28 28 24 c25 23 32 31 24 31 -2 0 -14 -12 -28 -27z"/>
<path d="M2674 7256 c11 -9 24 -16 30 -16 12 0 7 5 -24 19 -24 11 -24 11 -6
-3z"/>
<path d="M4235 7244 c-9 -14 -15 -27 -13 -30 2 -2 12 10 22 26 21 37 15 40 -9
4z"/>
<path d="M4985 7236 c-162 -31 -336 -135 -439 -265 -68 -84 -142 -213 -171
-298 l-23 -66 -74 -18 c-214 -54 -378 -192 -437 -367 -19 -55 -21 -86 -21
-306 l0 -245 -46 -53 c-26 -28 -56 -72 -68 -97 l-21 -46 -3 -1506 -2 -1506
137 -7 c447 -21 666 -27 1178 -27 495 -1 1150 14 1180 26 6 3 -98 1 -230 -3
-402 -12 -1710 -6 -1995 9 l-255 14 0 1500 0 1500 24 47 c13 26 43 69 67 96
l44 50 0 239 c0 189 3 251 16 294 33 113 104 208 210 278 80 54 149 83 243
102 61 13 61 13 75 59 18 59 88 200 136 270 49 72 163 179 238 223 134 78 293
114 461 104 53 -3 119 -13 146 -21 28 -9 57 -15 65 -15 8 0 -14 10 -50 21 -84
26 -285 33 -385 14z"/>
<path d="M3964 7203 c-15 -20 -23 -33 -16 -29 13 8 56 66 49 66 -3 0 -17 -17
-33 -37z"/>
<path d="M2729 7213 c-13 -16 -12 -17 4 -4 16 13 21 21 13 21 -2 0 -10 -8 -17
-17z"/>
<path d="M5670 7174 c94 -81 170 -165 231 -257 59 -88 73 -103 44 -47 -56 108
-232 301 -314 343 -9 5 9 -13 39 -39z"/>
<path d="M3614 7178 l-29 -33 33 29 c17 17 32 31 32 33 0 8 -8 1 -36 -29z"/>
<path d="M3719 7173 l-34 -38 38 34 c20 19 37 36 37 38 0 8 -8 0 -41 -34z"/>
<path d="M3809 7163 l-34 -38 38 34 c20 19 37 36 37 38 0 8 -8 0 -41 -34z"/>
<path d="M5440 7196 c0 -2 23 -16 50 -30 28 -15 82 -47 120 -71 39 -25 70 -43
70 -41 0 7 -122 92 -157 110 -40 20 -83 37 -83 32z"/>
<path d="M7213 7135 c0 -22 2 -30 4 -17 2 12 2 30 0 40 -3 9 -5 -1 -4 -23z"/>
<path d="M6459 7143 c-13 -16 -12 -17 4 -4 9 7 17 15 17 17 0 8 -8 3 -21 -13z"/>
<path d="M2755 7140 c3 -5 8 -10 11 -10 2 0 4 5 4 10 0 6 -5 10 -11 10 -5 0
-7 -4 -4 -10z"/>
<path d="M4170 7120 c-6 -11 -8 -20 -6 -20 3 0 10 9 16 20 6 11 8 20 6 20 -3
0 -10 -9 -16 -20z"/>
<path d="M5370 7122 c-19 -15 -25 -30 -26 -61 0 -47 -38 -106 -190 -302 -52
-66 -100 -129 -107 -140 -13 -17 -29 -19 -193 -22 -200 -4 -260 -16 -313 -66
l-31 -29 0 -135 c0 -129 2 -140 36 -239 19 -56 46 -120 59 -140 l25 -37 -41
-34 c-22 -19 -68 -50 -102 -68 -67 -36 -68 -36 -302 -27 -100 3 -144 -12 -196
-69 -67 -72 -75 -121 -15 -83 50 30 115 27 190 -11 87 -44 88 -46 71 -78 -7
-15 -21 -33 -29 -40 -9 -8 -16 -20 -16 -28 0 -28 245 -6 313 28 38 20 146 57
150 52 3 -2 15 0 26 7 12 6 20 7 19 3 -1 -4 1 -29 6 -56 13 -82 85 -102 99
-27 4 18 13 30 22 30 8 0 15 -4 15 -9 0 -24 54 -70 99 -85 65 -21 90 -20 126
4 23 16 45 20 95 19 64 -1 108 11 142 39 10 8 29 12 43 10 14 -3 28 -1 31 3 8
13 73 11 161 -6 43 -8 120 -15 171 -15 103 0 114 9 67 56 -24 24 -33 40 -17
30 5 -3 50 10 100 29 103 39 160 44 222 19 46 -19 55 -15 46 19 -11 45 -52 91
-106 120 -55 29 -55 29 -182 22 -144 -7 -156 -4 -245 72 -40 33 -54 53 -59 81
-13 69 -33 103 -57 100 -26 -4 -27 -11 17 117 32 91 35 110 36 215 0 136 -6
149 -80 176 -27 10 -50 23 -50 28 0 23 182 242 215 259 45 23 58 50 53 107 -7
66 -37 106 -88 114 -49 8 -111 36 -104 48 3 4 -1 8 -9 8 -8 0 -28 3 -44 6 -20
4 -36 0 -53 -14z m143 -58 c87 -36 97 -51 12 -18 -39 14 -81 30 -95 34 -24 8
-24 8 -2 9 12 1 51 -11 85 -25z m-98 -36 c-13 -59 -42 -112 -92 -173 -27 -33
-98 -124 -157 -202 -108 -143 -126 -164 -126 -144 0 6 4 11 8 11 4 0 16 15 26
33 l19 32 -37 -34 c-20 -19 -36 -32 -36 -28 0 13 62 77 70 72 4 -3 14 3 21 13
13 15 12 16 -3 3 -10 -7 -18 -9 -18 -3 0 12 25 34 32 27 3 -3 13 5 24 17 l19
23 -22 -19 c-13 -11 -23 -15 -23 -9 0 16 36 44 45 36 4 -5 5 -2 1 4 -9 17 43
85 58 76 6 -3 8 -3 4 2 -11 11 11 47 24 39 6 -4 8 -3 5 2 -3 6 21 44 54 85 60
76 89 125 89 153 0 9 5 16 11 16 7 0 8 -11 4 -32z m-56 -245 c-33 -44 -79 -92
-79 -84 0 9 79 101 87 101 3 0 -1 -8 -8 -17z m-563 -218 c-87 -10 -112 -16
-122 -31 -8 -11 -18 -25 -24 -31 -8 -10 -5 -13 12 -14 13 0 46 -4 75 -8 29 -4
50 -4 47 1 -3 4 14 9 38 9 l43 2 -52 6 c-69 9 -79 21 -17 22 27 0 69 4 94 8
40 8 35 9 -45 11 l-90 3 115 7 c63 4 116 7 117 6 1 -1 -13 -19 -31 -40 -28
-33 -40 -40 -87 -47 -101 -14 -185 -10 -255 13 l-66 21 24 18 c41 32 156 56
263 56 66 0 63 0 -39 -12z m650 -24 c23 -10 45 -24 49 -31 11 -18 -17 -41 -35
-30 -13 8 -12 10 3 10 9 0 17 5 17 10 0 7 -7 7 -20 0 -41 -22 -113 24 -83 53
10 11 25 8 69 -12z m-31 -61 c5 -9 -75 -23 -83 -15 -3 3 3 11 13 18 18 14 61
12 70 -3z m-802 -20 c42 -19 70 -21 314 -23 267 -2 442 6 497 24 38 12 44 5
14 -15 -45 -29 -207 -56 -347 -57 -72 -1 -131 -5 -131 -10 0 -14 195 -10 323
6 65 9 122 13 128 9 6 -3 19 2 30 12 10 9 19 14 19 9 0 -4 7 -2 15 5 12 10 15
10 15 -3 0 -19 -34 -53 -70 -72 -23 -12 -45 -17 -180 -44 l-45 -9 40 -1 c37
-1 221 39 244 53 8 5 9 -17 2 -55 0 -4 -34 -21 -73 -39 -59 -27 -86 -33 -141
-34 -38 0 -60 -3 -50 -7 10 -3 -15 -9 -59 -13 -66 -7 -77 -10 -83 -29 -6 -22
-6 -22 -14 -2 -7 16 -9 13 -15 -20 -4 -22 -7 -50 -7 -63 -1 -15 -6 -22 -14
-18 -7 2 -22 -2 -33 -10 -21 -14 -21 -14 -7 20 21 49 19 77 -5 83 -11 3 -20 9
-20 15 0 11 -38 -8 -67 -35 -12 -11 -29 -41 -38 -68 -20 -58 -38 -67 -77 -34
-20 17 -37 23 -52 19 -12 -3 -40 -1 -63 4 -29 7 -43 6 -46 -1 -4 -14 -44 80
-61 145 -7 29 -10 54 -6 56 5 2 37 -4 72 -13 148 -39 381 -56 498 -36 31 5 3
8 -95 8 -160 1 -232 12 -362 54 -90 30 -124 49 -86 49 15 0 16 2 3 11 -11 8
-6 9 20 4 33 -5 32 -4 -12 16 -40 18 -48 26 -48 48 0 16 3 21 8 14 4 -7 39
-14 82 -17 41 -2 116 -7 165 -10 l90 -5 -75 10 c-41 5 -97 14 -123 19 -58 12
-147 49 -147 61 0 14 24 10 73 -11z m-58 -110 c3 -5 1 -10 -4 -10 -6 0 -11 5
-11 10 0 6 2 10 4 10 3 0 8 -4 11 -10z m901 -194 c-15 -47 -32 -88 -38 -93
-19 -11 -138 -15 -182 -6 -35 8 -40 13 -52 51 -6 23 -17 49 -23 56 -9 11 2 15
64 21 90 8 222 38 238 54 20 20 19 3 -7 -83z m-343 -21 c-3 -9 -8 -14 -10 -11
-3 3 -2 9 2 15 9 16 15 13 8 -4z m-158 -25 c3 -6 -1 -7 -9 -4 -18 7 -21 14 -7
14 6 0 13 -4 16 -10z m205 -42 c0 -10 4 -18 9 -18 5 0 31 -10 58 -22 26 -12
55 -20 63 -19 12 1 13 0 1 -8 -9 -6 -34 0 -77 19 -34 16 -66 25 -70 22 -4 -4
-4 -2 -1 4 4 7 -2 14 -14 17 -26 7 -16 26 11 24 12 -1 20 -8 20 -19z m-140
-47 c-6 -13 -7 -21 -1 -21 5 0 13 9 16 20 3 11 13 20 20 20 9 0 12 -7 9 -17
-4 -14 -1 -13 11 3 15 21 16 21 68 4 28 -10 79 -32 112 -49 33 -17 64 -31 70
-31 5 0 18 -14 27 -30 18 -31 16 -82 -5 -107 -5 -7 -7 -13 -4 -13 3 0 2 -13
-3 -30 -5 -17 -5 -30 0 -30 17 0 40 32 40 54 0 33 26 104 45 123 9 8 14 22 11
29 -3 8 -1 14 3 14 5 0 11 -6 13 -12 3 -7 13 -13 23 -13 22 0 25 -6 65 -129
23 -72 30 -109 25 -135 -9 -53 -26 -91 -40 -91 -8 0 -11 10 -9 28 l4 27 -11
-27 c-17 -45 -32 -34 -25 20 5 42 4 44 -7 21 -17 -37 -37 -59 -54 -59 -10 0
-9 5 5 21 19 20 49 136 38 147 -3 3 -6 -2 -6 -10 0 -26 -42 -128 -52 -128 -6
0 -23 14 -40 32 -20 22 -28 39 -25 55 4 24 -7 31 -18 12 -14 -22 -54 -29 -87
-14 -25 11 -28 14 -12 15 11 0 25 -5 32 -12 9 -9 12 -9 12 1 0 7 6 11 13 8 6
-2 19 11 28 29 19 39 17 40 -16 18 -40 -26 -84 -28 -116 -5 -20 15 -29 17 -32
8 -3 -6 -6 -1 -7 13 -2 25 -2 25 -16 -5 -14 -29 -14 -28 -9 30 l5 60 -15 -54
c-17 -59 -30 -73 -88 -92 -52 -17 -105 7 -114 51 -3 17 -10 33 -14 36 -5 3 -9
21 -9 40 0 33 -14 46 -23 22 -2 -7 -8 0 -12 15 -12 44 6 89 45 111 34 20 132
56 138 51 2 -2 -1 -13 -8 -24z m430 -15 c0 -2 -7 -7 -16 -10 -8 -3 -12 -2 -9
4 6 10 25 14 25 6z m453 -233 c-13 -2 -35 -2 -50 0 -16 2 -5 4 22 4 28 0 40
-2 28 -4z m-176 -9 c-3 -3 -12 -4 -19 -1 -8 3 -5 6 6 6 11 1 17 -2 13 -5z
m288 -15 c5 -5 -5 -4 -23 2 -17 6 -32 13 -32 16 0 7 43 -8 55 -18z m-1135 -49
c0 -5 -4 -10 -10 -10 -5 0 -10 5 -10 10 0 6 5 10 10 10 6 0 10 -4 10 -10z
m-18 -65 c-2 -14 -6 -25 -8 -25 -2 0 -4 11 -4 25 0 14 4 25 9 25 4 0 6 -11 3
-25z m-109 -10 c-3 -9 -8 -14 -10 -11 -3 3 -2 9 2 15 9 16 15 13 8 -4z m467 0
c11 -13 10 -14 -4 -9 -9 3 -16 10 -16 15 0 13 6 11 20 -6z m-45 -12 c19 -9 35
-20 35 -24 0 -12 -57 10 -71 27 -15 18 -7 18 36 -3z m95 2 c7 -8 8 -15 2 -15
-5 0 -15 7 -22 15 -7 8 -8 15 -2 15 5 0 15 -7 22 -15z m-965 -15 c-3 -5 -10
-10 -16 -10 -5 0 -9 5 -9 10 0 6 7 10 16 10 8 0 12 -4 9 -10z m215 2 c0 -12
-38 -32 -42 -21 -2 5 -18 -4 -36 -20 -40 -37 -43 -25 -3 13 16 16 34 25 40 22
6 -4 11 -2 11 3 0 6 7 11 15 11 8 0 15 -3 15 -8z m292 -24 c-7 -7 -12 -8 -12
-2 0 14 12 26 19 19 2 -3 -1 -11 -7 -17z m899 5 c13 -15 12 -15 -11 -3 -34 17
-36 20 -18 20 9 0 22 -7 29 -17z m-10 -31 c-7 -2 -18 1 -23 6 -8 8 -4 9 13 5
13 -4 18 -8 10 -11z m-554 -48 c-3 -3 -12 -4 -19 -1 -8 3 -5 6 6 6 11 1 17 -2
13 -5z m-117 -34 c0 -5 -2 -10 -4 -10 -3 0 -8 5 -11 10 -3 6 -1 10 4 10 6 0
11 -4 11 -10z"/>
<path d="M4723 6313 c9 -2 23 -2 30 0 6 3 -1 5 -18 5 -16 0 -22 -2 -12 -5z"/>
<path d="M5435 6300 c-25 -16 -27 -20 -10 -20 20 1 55 22 55 34 0 11 -14 6
-45 -14z"/>
<path d="M4795 6300 c17 -4 39 -8 50 -8 16 0 15 2 -5 8 -14 4 -36 8 -50 8 -22
0 -22 -1 5 -8z"/>
<path d="M5358 6283 c7 -3 16 -2 19 1 4 3 -2 6 -13 5 -11 0 -14 -3 -6 -6z"/>
<path d="M5263 6223 c9 -2 23 -2 30 0 6 3 -1 5 -18 5 -16 0 -22 -2 -12 -5z"/>
<path d="M4610 6090 c0 -5 4 -10 9 -10 5 0 18 -3 28 -6 16 -6 16 -5 -2 9 -23
19 -35 21 -35 7z"/>
<path d="M4911 5969 c-23 -38 -26 -49 -11 -49 11 0 43 70 36 78 -3 2 -14 -11
-25 -29z"/>
<path d="M5077 5993 c-3 -5 -1 -17 4 -28 7 -17 8 -17 8 8 1 27 -4 34 -12 20z"/>
<path d="M5026 5973 c-6 -14 -5 -15 5 -6 7 7 10 15 7 18 -3 3 -9 -2 -12 -12z"/>
<path d="M5177 5919 c4 -13 8 -18 11 -10 2 7 -1 18 -6 23 -8 8 -9 4 -5 -13z"/>
<path d="M5223 5875 c0 -27 2 -38 4 -22 2 15 2 37 0 50 -2 12 -4 0 -4 -28z"/>
<path d="M4897 5903 c-4 -3 -6 -25 -6 -47 l2 -41 7 45 c8 48 7 54 -3 43z"/>
<path d="M5102 5890 c0 -14 2 -19 5 -12 2 6 2 18 0 25 -3 6 -5 1 -5 -13z"/>
<path d="M4981 5864 c0 -11 3 -14 6 -6 3 7 2 16 -1 19 -3 4 -6 -2 -5 -13z"/>
<path d="M5481 5814 c0 -11 3 -14 6 -6 3 7 2 16 -1 19 -3 4 -6 -2 -5 -13z"/>
<path d="M5406 5771 c-10 -21 -16 -47 -14 -57 3 -12 10 2 21 36 19 65 17 74
-7 21z"/>
<path d="M5491 5774 c0 -11 3 -14 6 -6 3 7 2 16 -1 19 -3 4 -6 -2 -5 -13z"/>
<path d="M5422 5721 c-7 -19 -10 -36 -7 -39 6 -7 26 49 22 62 -2 6 -9 -5 -15
-23z"/>
<path d="M5500 5723 c0 -12 5 -25 10 -28 13 -8 13 15 0 35 -8 12 -10 11 -10
-7z"/>
<path d="M5370 5660 c0 -5 5 -10 11 -10 5 0 7 5 4 10 -3 6 -8 10 -11 10 -2 0
-4 -4 -4 -10z"/>
<path d="M2794 7116 c11 -9 24 -16 30 -16 12 0 7 5 -24 19 -24 11 -24 11 -6
-3z"/>
<path d="M3644 7098 l-29 -33 33 29 c17 17 32 31 32 33 0 8 -8 1 -36 -29z"/>
<path d="M4006 7092 c-22 -27 -24 -32 -7 -17 20 17 47 55 39 55 -2 0 -16 -17
-32 -38z"/>
<path d="M6368 7123 c6 -2 18 -2 25 0 6 3 1 5 -13 5 -14 0 -19 -2 -12 -5z"/>
<path d="M7251 7104 c0 -11 3 -14 6 -6 3 7 2 16 -1 19 -3 4 -6 -2 -5 -13z"/>
<path d="M2729 7093 c-13 -16 -12 -17 4 -4 16 13 21 21 13 21 -2 0 -10 -8 -17
-17z"/>
<path d="M3505 7080 c-10 -11 -14 -20 -9 -20 5 0 15 9 22 20 7 11 11 20 9 20
-2 0 -12 -9 -22 -20z"/>
<path d="M3850 7060 c-6 -11 -8 -20 -6 -20 3 0 10 9 16 20 6 11 8 20 6 20 -3
0 -10 -9 -16 -20z"/>
<path d="M3915 6978 c-32 -40 -51 -66 -41 -58 20 16 110 130 103 130 -3 0 -31
-33 -62 -72z"/>
<path d="M4108 7033 c-18 -21 -31 -43 -25 -43 2 0 13 14 25 30 25 33 24 41 0
13z"/>
<path d="M4477 7020 c-10 -16 -16 -30 -14 -30 2 0 13 14 25 30 13 17 19 30 14
30 -4 0 -16 -13 -25 -30z"/>
<path d="M3555 6998 l-40 -43 43 40 c23 21 42 40 42 42 0 8 -9 0 -45 -39z"/>
<path d="M5736 6988 c65 -69 118 -159 165 -277 21 -53 39 -90 39 -83 0 27 -65
180 -106 248 -47 77 -119 164 -136 164 -6 0 11 -24 38 -52z"/>
<path d="M3735 6990 c-3 -6 1 -7 9 -4 18 7 21 14 7 14 -6 0 -13 -4 -16 -10z"/>
<path d="M4058 6963 c-18 -21 -31 -43 -25 -43 2 0 13 14 25 30 25 33 24 41 0
13z"/>
<path d="M4421 6940 c-11 -22 -19 -40 -17 -40 2 0 15 18 30 40 14 22 22 40 17
40 -5 0 -18 -18 -30 -40z"/>
<path d="M6095 6959 c-4 -6 -5 -12 -2 -15 2 -3 7 2 10 11 7 17 1 20 -8 4z"/>
<path d="M7175 6910 c-3 -6 1 -7 9 -4 18 7 21 14 7 14 -6 0 -13 -4 -16 -10z"/>
<path d="M3381 6894 c0 -11 3 -14 6 -6 3 7 2 16 -1 19 -3 4 -6 -2 -5 -13z"/>
<path d="M4010 6895 c-7 -9 -11 -17 -9 -20 3 -2 10 5 17 15 14 24 10 26 -8 5z"/>
<path d="M7432 6890 c0 -14 2 -19 5 -12 2 6 2 18 0 25 -3 6 -5 1 -5 -13z"/>
<path d="M4291 6884 c0 -11 3 -14 6 -6 3 7 2 16 -1 19 -3 4 -6 -2 -5 -13z"/>
<path d="M3537 6883 c-3 -5 18 -9 46 -11 28 -2 49 -1 47 1 -10 9 -89 17 -93
10z"/>
<path d="M4370 6868 c-11 -12 -20 -24 -21 -27 0 -3 -2 -14 -4 -23 -5 -28 1
-22 28 27 28 50 28 56 -3 23z"/>
<path d="M4228 6863 c12 -22 30 -38 37 -31 2 2 -8 14 -22 28 -24 23 -25 23
-15 3z"/>
<path d="M3980 6845 c-7 -9 -11 -17 -9 -20 3 -2 10 5 17 15 14 24 10 26 -8 5z"/>
<path d="M2874 6828 l-19 -23 23 19 c21 18 27 26 19 26 -2 0 -12 -10 -23 -22z"/>
<path d="M3784 6828 l-19 -23 23 19 c12 11 22 21 22 23 0 8 -8 2 -26 -19z"/>
<path d="M3393 6806 c3 -8 11 -32 16 -53 6 -23 26 -53 48 -73 l37 -35 -31 37
c-17 20 -38 59 -48 87 -9 28 -19 51 -22 51 -3 0 -3 -6 0 -14z"/>
<path d="M3811 6798 c-14 -23 -14 -23 8 -4 22 20 25 26 13 26 -4 0 -13 -10
-21 -22z"/>
<path d="M5961 6815 c0 -5 7 -26 14 -45 9 -23 14 -28 14 -15 0 11 -6 31 -14
45 -8 14 -14 21 -14 15z"/>
<path d="M3243 6803 c4 -3 1 -13 -6 -22 -11 -14 -10 -14 6 -2 20 15 22 31 5
31 -6 0 -8 -3 -5 -7z"/>
<path d="M6360 6780 c-6 -11 -8 -20 -6 -20 3 0 10 9 16 20 6 11 8 20 6 20 -3
0 -10 -9 -16 -20z"/>
<path d="M4327 6783 c-4 -3 -7 -13 -7 -22 1 -13 3 -13 11 2 11 19 8 33 -4 20z"/>
<path d="M2923 6763 c-3 -10 -8 -22 -11 -27 -3 -5 0 -6 5 -3 11 7 25 47 17 47
-3 0 -7 -8 -11 -17z"/>
<path d="M6490 6766 c0 -2 8 -10 18 -17 15 -13 16 -12 3 4 -13 16 -21 21 -21
13z"/>
<path d="M6715 6750 c10 -11 20 -20 23 -20 3 0 -3 9 -13 20 -10 11 -20 20 -23
20 -3 0 3 -9 13 -20z"/>
<path d="M7008 6755 c6 -11 23 -31 39 -45 l28 -25 -30 35 c-47 55 -48 56 -37
35z"/>
<path d="M6329 6733 c-13 -16 -12 -17 4 -4 16 13 21 21 13 21 -2 0 -10 -8 -17
-17z"/>
<path d="M3579 6723 c-13 -16 -12 -17 4 -4 9 7 17 15 17 17 0 8 -8 3 -21 -13z"/>
<path d="M4300 6719 c-7 -11 -10 -23 -7 -25 2 -2 9 7 15 21 14 30 7 33 -8 4z"/>
<path d="M6641 6724 c0 -11 3 -14 6 -6 3 7 2 16 -1 19 -3 4 -6 -2 -5 -13z"/>
<path d="M5990 6721 c0 -6 4 -13 10 -16 6 -3 7 1 4 9 -7 18 -14 21 -14 7z"/>
<path d="M7116 6703 c-6 -14 -5 -15 5 -6 7 7 10 15 7 18 -3 3 -9 -2 -12 -12z"/>
<path d="M3610 6670 c-25 -22 -40 -40 -35 -39 6 0 28 18 50 39 51 51 43 51
-15 0z"/>
<path d="M4220 6700 c0 -5 5 -10 11 -10 5 0 7 5 4 10 -3 6 -8 10 -11 10 -2 0
-4 -4 -4 -10z"/>
<path d="M4190 6660 c-145 -36 -326 -184 -396 -325 -53 -107 -64 -179 -64
-421 0 -201 -1 -212 -21 -230 -11 -10 -25 -28 -31 -39 -6 -11 8 -2 31 20 l42
40 -6 185 c-7 216 2 301 45 404 70 168 264 326 445 362 44 9 51 12 25 12 -19
0 -51 -4 -70 -8z"/>
<path d="M6136 6637 c28 -12 62 -30 77 -40 15 -9 27 -13 27 -8 0 11 -121 71
-141 71 -8 -1 9 -11 37 -23z"/>
<path d="M7522 6619 c6 -16 12 -28 14 -26 5 5 -13 57 -20 57 -3 0 0 -14 6 -31z"/>
<path d="M3490 6636 c0 -2 7 -7 16 -10 8 -3 12 -2 9 4 -6 10 -25 14 -25 6z"/>
<path d="M6751 6624 c0 -11 3 -14 6 -6 3 7 2 16 -1 19 -3 4 -6 -2 -5 -13z"/>
<path d="M3584 6596 c11 -9 24 -16 30 -16 12 0 7 5 -24 19 -24 11 -24 11 -6
-3z"/>
<path d="M5946 6601 c5 -4 41 -16 79 -26 172 -44 318 -165 396 -330 42 -88 49
-144 49 -387 l0 -219 41 -52 c79 -99 73 -33 79 -897 l6 -775 -1 780 0 780 -23
43 c-13 24 -38 60 -56 80 l-34 37 -4 260 c-5 286 -4 286 -77 410 -89 152 -231
251 -425 295 -21 5 -34 5 -30 1z"/>
<path d="M2605 6579 c-4 -6 -5 -12 -2 -15 2 -3 7 2 10 11 7 17 1 20 -8 4z"/>
<path d="M7541 6564 c0 -11 3 -14 6 -6 3 7 2 16 -1 19 -3 4 -6 -2 -5 -13z"/>
<path d="M6311 6523 c69 -59 119 -114 151 -168 16 -27 26 -39 23 -25 -7 25
-104 160 -115 160 -3 0 -23 16 -44 35 -21 19 -43 35 -49 35 -6 0 9 -17 34 -37z"/>
<path d="M3000 6520 c8 -5 22 -9 30 -9 10 0 8 3 -5 9 -27 12 -43 12 -25 0z"/>
<path d="M3108 6493 c7 -3 16 -2 19 1 4 3 -2 6 -13 5 -11 0 -14 -3 -6 -6z"/>
<path d="M3148 6493 c7 -3 16 -2 19 1 4 3 -2 6 -13 5 -11 0 -14 -3 -6 -6z"/>
<path d="M3185 6480 c3 -5 8 -10 11 -10 2 0 4 5 4 10 0 6 -5 10 -11 10 -5 0
-7 -4 -4 -10z"/>
<path d="M6466 6463 c-6 -14 -5 -15 5 -6 7 7 10 15 7 18 -3 3 -9 -2 -12 -12z"/>
<path d="M7461 6464 c0 -11 3 -14 6 -6 3 7 2 16 -1 19 -3 4 -6 -2 -5 -13z"/>
<path d="M7491 6464 c0 -11 3 -14 6 -6 3 7 2 16 -1 19 -3 4 -6 -2 -5 -13z"/>
<path d="M7005 6460 c-3 -5 -1 -10 4 -10 6 0 11 5 11 10 0 6 -2 10 -4 10 -3 0
-8 -4 -11 -10z"/>
<path d="M3070 6430 c-35 -7 -35 -7 -5 -9 17 0 37 4 45 9 17 11 11 11 -40 0z"/>
<path d="M3132 6404 l-37 -36 43 33 c23 18 42 34 42 36 0 9 -14 0 -48 -33z"/>
<path d="M2778 6403 c7 -3 16 -2 19 1 4 3 -2 6 -13 5 -11 0 -14 -3 -6 -6z"/>
<path d="M7017 6350 c3 -36 7 -67 9 -69 8 -9 2 95 -6 114 -4 12 -6 -7 -3 -45z"/>
<path d="M7438 6373 c7 -3 16 -2 19 1 4 3 -2 6 -13 5 -11 0 -14 -3 -6 -6z"/>
<path d="M3445 6330 c-3 -6 1 -7 9 -4 18 7 21 14 7 14 -6 0 -13 -4 -16 -10z"/>
<path d="M3368 6313 c7 -3 16 -2 19 1 4 3 -2 6 -13 5 -11 0 -14 -3 -6 -6z"/>
<path d="M3389 6283 l-24 -28 28 24 c25 23 32 31 24 31 -2 0 -14 -12 -28 -27z"/>
<path d="M6496 6287 c3 -10 9 -15 12 -12 3 3 0 11 -7 18 -10 9 -11 8 -5 -6z"/>
<path d="M6901 6274 c0 -11 3 -14 6 -6 3 7 2 16 -1 19 -3 4 -6 -2 -5 -13z"/>
<path d="M7011 6254 c0 -11 3 -14 6 -6 3 7 2 16 -1 19 -3 4 -6 -2 -5 -13z"/>
<path d="M6515 6245 c28 -71 35 -142 35 -347 l0 -217 26 -28 25 -28 -17 29
c-16 25 -18 57 -19 250 0 178 -4 233 -18 280 -9 33 -22 65 -28 70 -9 8 -10 6
-4 -9z"/>
<path d="M3249 6213 l-34 -38 38 34 c20 19 37 36 37 38 0 8 -8 0 -41 -34z"/>
<path d="M2970 6230 c-9 -6 -10 -10 -3 -10 6 0 15 5 18 10 8 12 4 12 -15 0z"/>
<path d="M6891 6224 c0 -11 3 -14 6 -6 3 7 2 16 -1 19 -3 4 -6 -2 -5 -13z"/>
<path d="M2600 6222 c0 -4 14 -13 30 -19 17 -6 30 -10 30 -7 0 2 -13 10 -30
19 -16 9 -30 12 -30 7z"/>
<path d="M3351 6214 c0 -11 3 -14 6 -6 3 7 2 16 -1 19 -3 4 -6 -2 -5 -13z"/>
<path d="M6990 6200 c-7 -17 -26 -50 -42 -73 l-29 -42 31 35 c30 33 64 99 56
107 -2 2 -9 -10 -16 -27z"/>
<path d="M3193 6208 c-15 -18 -35 -58 -29 -58 2 0 13 16 25 35 20 35 22 46 4
23z"/>
<path d="M7530 6205 c0 -5 5 -17 10 -25 5 -8 10 -10 10 -5 0 6 -5 17 -10 25
-5 8 -10 11 -10 5z"/>
<path d="M2815 6140 c10 -11 20 -20 23 -20 3 0 -3 9 -13 20 -10 11 -20 20 -23
20 -3 0 3 -9 13 -20z"/>
<path d="M3309 6134 c-13 -15 -51 -40 -84 -56 -33 -16 -49 -26 -35 -22 47 12
87 35 120 69 19 19 32 35 29 35 -3 0 -16 -12 -30 -26z"/>
<path d="M6892 6125 c0 -16 2 -22 5 -12 2 9 2 23 0 30 -3 6 -5 -1 -5 -18z"/>
<path d="M3151 6124 c0 -11 3 -14 6 -6 3 7 2 16 -1 19 -3 4 -6 -2 -5 -13z"/>
<path d="M2765 6080 c10 -11 20 -20 23 -20 3 0 -3 9 -13 20 -10 11 -20 20 -23
20 -3 0 3 -9 13 -20z"/>
<path d="M6675 6080 c10 -11 20 -20 23 -20 3 0 -3 9 -13 20 -10 11 -20 20 -23
20 -3 0 3 -9 13 -20z"/>
<path d="M6901 6073 c-1 -6 -4 -20 -7 -30 -5 -17 -5 -17 6 0 6 10 9 23 6 30
-3 9 -5 9 -5 0z"/>
<path d="M7320 6076 c0 -2 7 -7 16 -10 8 -3 12 -2 9 4 -6 10 -25 14 -25 6z"/>
<path d="M3558 6054 c-27 -8 -48 -17 -48 -20 0 -4 8 -3 18 1 9 4 44 13 77 20
37 8 49 13 30 14 -16 0 -51 -7 -77 -15z"/>
<path d="M2602 6005 c0 -11 3 -29 8 -40 11 -25 11 1 0 35 -6 20 -8 21 -8 5z"/>
<path d="M7155 6000 c-13 -6 -15 -9 -5 -9 8 0 22 4 30 9 18 12 2 12 -25 0z"/>
<path d="M7213 6003 c15 -4 16 -7 5 -21 -9 -12 -6 -12 10 2 28 24 28 26 -5 25
-18 -1 -22 -3 -10 -6z"/>
<path d="M2691 5985 c1 -19 18 -51 18 -35 0 8 -4 22 -9 30 -5 8 -9 11 -9 5z"/>
<path d="M2740 5963 c0 -6 9 -21 21 -34 l20 -24 -17 30 c-24 39 -24 40 -24 28z"/>
<path d="M7128 5943 c7 -3 16 -2 19 1 4 3 -2 6 -13 5 -11 0 -14 -3 -6 -6z"/>
<path d="M2606 5925 c4 -8 8 -15 10 -15 2 0 4 7 4 15 0 8 -4 15 -10 15 -5 0
-7 -7 -4 -15z"/>
<path d="M3422 5915 c-1 -11 5 -31 13 -45 9 -16 14 -19 15 -9 0 8 -4 19 -9 25
-5 5 -11 18 -14 29 l-5 20 0 -20z"/>
<path d="M2786 5887 c3 -10 9 -15 12 -12 3 3 0 11 -7 18 -10 9 -11 8 -5 -6z"/>
<path d="M2976 5797 c3 -10 9 -15 12 -12 3 3 0 11 -7 18 -10 9 -11 8 -5 -6z"/>
<path d="M6848 5783 c6 -2 18 -2 25 0 6 3 1 5 -13 5 -14 0 -19 -2 -12 -5z"/>
<path d="M6938 5783 c12 -2 32 -2 45 0 12 2 2 4 -23 4 -25 0 -35 -2 -22 -4z"/>
<path d="M2990 5767 c0 -4 7 -21 15 -37 8 -16 12 -36 9 -44 -3 -9 -1 -16 5
-16 16 0 13 31 -9 70 -11 19 -19 31 -20 27z"/>
<path d="M2977 5689 c7 -7 15 -10 18 -7 3 3 -2 9 -12 12 -14 6 -15 5 -6 -5z"/>
<path d="M7358 5673 c6 -2 18 -2 25 0 6 3 1 5 -13 5 -14 0 -19 -2 -12 -5z"/>
<path d="M6660 5626 c0 -2 9 -6 20 -9 11 -3 18 -1 14 4 -5 9 -34 13 -34 5z"/>
<path d="M7148 5623 c12 -2 30 -2 40 0 9 3 -1 5 -23 4 -22 0 -30 -2 -17 -4z"/>
<path d="M3619 5543 l-24 -68 0 -905 -1 -905 6 900 5 900 26 73 c14 39 22 72
19 72 -4 0 -18 -30 -31 -67z"/>
<path d="M6636 5558 c24 -48 28 -69 36 -213 5 -88 8 -265 6 -392 -2 -128 0
-233 4 -233 12 0 9 652 -3 733 -6 41 -21 90 -35 115 -35 59 -40 52 -8 -10z"/>
<path d="M7208 5593 c7 -3 16 -2 19 1 4 3 -2 6 -13 5 -11 0 -14 -3 -6 -6z"/>
<path d="M6690 5564 c0 -6 7 -19 16 -30 14 -18 14 -18 3 6 -14 31 -19 36 -19
24z"/>
<path d="M3215 5510 c3 -5 8 -10 11 -10 2 0 4 5 4 10 0 6 -5 10 -11 10 -5 0
-7 -4 -4 -10z"/>
<path d="M3160 5461 c0 -6 4 -13 10 -16 6 -3 7 1 4 9 -7 18 -14 21 -14 7z"/>
<path d="M2820 5436 c0 -3 9 -10 20 -16 11 -6 20 -8 20 -6 0 3 -9 10 -20 16
-11 6 -20 8 -20 6z"/>
<path d="M2720 5405 c-7 -9 -10 -18 -7 -21 3 -3 10 4 17 15 13 25 8 27 -10 6z"/>
<path d="M6730 5416 c0 -2 8 -10 18 -17 15 -13 16 -12 3 4 -13 16 -21 21 -21
13z"/>
<path d="M3240 5406 c0 -2 7 -7 16 -10 8 -3 12 -2 9 4 -6 10 -25 14 -25 6z"/>
<path d="M3432 5320 c-1 -58 3 -93 13 -110 9 -16 14 -19 15 -9 0 8 -4 19 -10
25 -5 5 -11 47 -13 94 l-3 85 -2 -85z"/>
<path d="M5135 5383 c-73 -15 -71 -14 -52 -24 15 -9 17 -28 17 -161 0 -127 -3
-154 -17 -170 -15 -17 -14 -18 45 -18 35 0 62 4 62 10 0 6 -4 10 -10 10 -6 0
-10 38 -10 95 0 92 1 95 24 101 56 14 61 7 64 -99 2 -62 -1 -97 -8 -97 -5 0
-10 -4 -10 -10 0 -6 27 -10 62 -10 59 0 60 1 45 18 -13 15 -17 39 -17 110 0
79 -3 95 -20 112 -24 24 -70 26 -110 5 l-30 -16 0 76 c0 41 -3 74 -7 74 -5 -1
-17 -3 -28 -6z"/>
<path d="M3492 5350 c0 -14 2 -19 5 -12 2 6 2 18 0 25 -3 6 -5 1 -5 -13z"/>
<path d="M4740 5356 c0 -6 -3 -28 -6 -48 -5 -25 -3 -38 5 -38 6 0 11 7 11 15
0 25 38 55 70 55 l30 0 0 -151 c0 -133 -2 -153 -17 -165 -16 -12 -9 -13 50
-14 38 0 67 4 67 10 0 6 -4 10 -9 10 -18 0 -22 57 -15 182 l7 128 28 0 c32 0
69 -31 69 -57 0 -12 3 -14 11 -6 6 6 9 28 7 49 l-3 39 -152 1 c-106 1 -153 -2
-153 -10z"/>
<path d="M2882 5335 c0 -16 2 -22 5 -12 2 9 2 23 0 30 -3 6 -5 -1 -5 -18z"/>
<path d="M3486 5193 c-4 -71 -9 -146 -11 -168 l-5 -40 10 35 c10 39 26 300 18
300 -3 0 -8 -57 -12 -127z"/>
<path d="M2620 5293 c-29 -6 -50 -21 -50 -37 0 -6 5 -3 11 7 5 9 21 17 34 17
13 0 27 5 30 10 3 6 5 9 3 9 -2 -1 -14 -4 -28 -6z"/>
<path d="M3531 5264 c0 -11 3 -14 6 -6 3 7 2 16 -1 19 -3 4 -6 -2 -5 -13z"/>
<path d="M5460 5257 c-38 -19 -70 -74 -70 -121 0 -49 30 -103 66 -116 57 -22
129 -7 153 32 16 26 6 36 -17 15 -28 -26 -97 -22 -116 5 -9 12 -16 33 -16 45
0 25 20 29 118 23 l42 -2 0 37 c0 75 -87 119 -160 82z m80 -27 c11 -11 20 -29
20 -40 0 -17 -7 -20 -50 -20 -43 0 -50 3 -50 20 0 21 33 60 50 60 6 0 19 -9
30 -20z"/>
<path d="M2895 5200 c-3 -5 1 -10 9 -10 8 0 18 5 21 10 3 6 -1 10 -9 10 -8 0
-18 -4 -21 -10z"/>
<path d="M3009 5190 c24 -11 46 -20 50 -20 12 1 -64 39 -79 39 -8 0 5 -8 29
-19z"/>
<path d="M2890 5160 c-8 -5 -12 -12 -9 -15 4 -3 12 1 19 10 14 17 11 19 -10 5z"/>
<path d="M3095 5140 c10 -11 20 -20 23 -20 3 0 -3 9 -13 20 -10 11 -20 20 -23
20 -3 0 3 -9 13 -20z"/>
<path d="M2610 5116 c0 -2 8 -10 18 -17 15 -13 16 -12 3 4 -13 16 -21 21 -21
13z"/>
<path d="M3452 5095 c0 -16 2 -22 5 -12 2 9 2 23 0 30 -3 6 -5 -1 -5 -18z"/>
<path d="M3159 5058 c24 -32 45 -58 48 -58 7 0 -59 89 -76 103 -8 7 5 -14 28
-45z"/>
<path d="M6103 5093 c-34 -7 -73 -59 -73 -98 0 -22 -6 -38 -17 -44 -14 -8 -15
-10 -3 -11 13 0 14 -16 12 -97 -2 -54 -8 -103 -14 -110 -8 -10 4 -13 58 -12
66 0 68 1 47 16 -21 14 -23 23 -23 109 0 94 0 94 25 94 14 0 25 5 25 10 0 6
-11 10 -25 10 -22 0 -25 4 -25 39 0 37 19 71 40 71 5 0 18 -12 29 -27 l20 -28
1 32 c0 30 -23 56 -47 52 -4 -1 -18 -4 -30 -6z"/>
<path d="M2845 5048 l-40 -43 43 40 c39 36 47 45 39 45 -2 0 -21 -19 -42 -42z"/>
<path d="M2690 5070 c-13 -8 -13 -10 2 -10 9 0 20 5 23 10 8 13 -5 13 -25 0z"/>
<path d="M4183 5056 c15 -12 17 -32 17 -164 0 -133 -2 -152 -17 -161 -10 -6
-16 -11 -13 -11 3 0 35 -2 72 -3 l67 -2 -20 21 c-17 18 -19 33 -17 85 l3 64
65 0 65 0 3 -62 c2 -51 -1 -66 -17 -82 -19 -19 -19 -19 50 -23 65 -3 88 5 54
18 -23 9 -22 290 2 316 15 17 13 18 -58 18 -73 0 -74 -1 -51 -18 20 -16 23
-25 20 -77 l-3 -60 -69 -3 -69 -3 7 32 c3 17 6 49 6 70 0 28 4 39 15 39 8 0
15 5 15 10 0 6 -31 10 -72 10 -63 -1 -71 -2 -55 -14z"/>
<path d="M2700 5020 c-6 -11 -8 -20 -6 -20 3 0 10 9 16 20 6 11 8 20 6 20 -3
0 -10 -9 -16 -20z"/>
<path d="M2740 4953 l-55 -58 58 55 c31 30 57 56 57 57 0 8 -10 -1 -60 -54z"/>
<path d="M2670 4955 c-24 -24 -42 -46 -39 -49 2 -2 23 18 47 45 54 61 50 63
-8 4z"/>
<path d="M7351 4984 c0 -11 3 -14 6 -6 3 7 2 16 -1 19 -3 4 -6 -2 -5 -13z"/>
<path d="M7045 4970 c-3 -6 1 -7 9 -4 18 7 21 14 7 14 -6 0 -13 -4 -16 -10z"/>
<path d="M4592 4950 c-89 -54 -74 -198 24 -230 111 -37 209 78 158 185 -30 63
-117 84 -182 45z m88 -10 c11 -6 24 -27 30 -48 24 -89 3 -152 -51 -152 -25 0
-33 6 -46 37 -19 47 -13 125 12 153 21 23 29 24 55 10z"/>
<path d="M5025 4962 c-30 -4 -61 -22 -37 -22 8 0 12 -25 12 -84 0 -93 -9 -110
-57 -104 l-28 3 -3 103 -3 102 -32 0 c-38 0 -65 -14 -48 -24 7 -4 11 -40 11
-90 0 -104 16 -131 78 -131 25 0 48 7 60 18 19 17 20 17 24 0 4 -15 13 -18 53
-15 42 4 47 6 32 17 -14 10 -17 30 -17 118 0 58 -3 107 -7 109 -5 2 -21 2 -38
0z"/>
<path d="M5157 4950 c-29 -23 -42 -63 -27 -89 5 -11 35 -31 66 -45 46 -21 55
-29 52 -48 -5 -35 -59 -37 -86 -4 -26 33 -32 33 -32 -4 0 -24 5 -31 28 -36 15
-3 35 -8 44 -10 27 -8 87 23 99 50 20 43 5 69 -56 99 -61 30 -76 50 -52 74 21
21 61 10 75 -22 6 -14 16 -25 22 -25 14 0 13 53 -2 68 -20 20 -102 15 -131 -8z"/>
<path d="M5414 4956 c-56 -25 -82 -122 -49 -185 20 -40 85 -65 132 -52 41 12
73 37 73 59 0 12 -5 10 -23 -6 -51 -48 -127 -18 -127 50 l0 28 75 0 75 0 0 33
c-1 72 -76 108 -156 73z m80 -28 c29 -42 21 -58 -29 -58 -40 0 -45 3 -45 22 0
24 27 58 46 58 7 0 20 -10 28 -22z"/>
<path d="M5779 4953 c-85 -52 -75 -191 17 -229 102 -43 198 55 165 167 -21 70
-117 102 -182 62z m88 -11 c32 -20 45 -150 19 -185 -20 -26 -67 -19 -83 13
-18 36 -16 131 3 158 15 22 39 28 61 14z"/>
<path d="M3245 4940 c10 -11 20 -20 23 -20 3 0 -3 9 -13 20 -10 11 -20 20 -23
20 -3 0 3 -9 13 -20z"/>
<path d="M3140 4946 c0 -2 8 -10 18 -17 15 -13 16 -12 3 4 -13 16 -21 21 -21
13z"/>
<path d="M7400 4906 c0 -2 7 -7 16 -10 8 -3 12 -2 9 4 -6 10 -25 14 -25 6z"/>
<path d="M7098 4893 c7 -3 16 -2 19 1 4 3 -2 6 -13 5 -11 0 -14 -3 -6 -6z"/>
<path d="M2675 4879 c-4 -6 -5 -12 -2 -15 2 -3 7 2 10 11 7 17 1 20 -8 4z"/>
<path d="M3290 4886 c0 -2 8 -10 18 -17 15 -13 16 -12 3 4 -13 16 -21 21 -21
13z"/>
<path d="M2611 4800 c-1 -78 13 -120 64 -187 207 -274 251 -323 327 -363 44
-23 128 -38 128 -23 0 6 -24 13 -53 15 -90 7 -130 42 -313 273 -116 146 -127
166 -140 260 -12 79 -12 79 -13 25z"/>
<path d="M3329 4832 c5 -10 18 -25 27 -33 11 -9 9 -2 -6 19 -26 35 -36 42 -21
14z"/>
<path d="M7255 4820 c-10 -11 -14 -20 -9 -20 5 0 15 9 22 20 7 11 11 20 9 20
-2 0 -12 -9 -22 -20z"/>
<path d="M7545 4780 c10 -11 20 -20 23 -20 3 0 -3 9 -13 20 -10 11 -20 20 -23
20 -3 0 3 -9 13 -20z"/>
<path d="M3385 4760 c10 -11 20 -20 23 -20 3 0 -3 9 -13 20 -10 11 -20 20 -23
20 -3 0 3 -9 13 -20z"/>
<path d="M6901 4743 c0 -12 -4 -30 -7 -40 -5 -17 -5 -17 6 0 6 10 9 28 7 40
-4 22 -4 22 -6 0z"/>
<path d="M2672 4720 c0 -14 2 -19 5 -12 2 6 2 18 0 25 -3 6 -5 1 -5 -13z"/>
<path d="M3422 4706 c7 -8 15 -12 17 -11 5 6 -10 25 -20 25 -5 0 -4 -6 3 -14z"/>
<path d="M6680 3558 c-3 -636 -2 -1154 3 -1149 4 4 6 524 5 1157 l-3 1149 -5
-1157z"/>
<path d="M3810 4660 c0 -5 8 -10 18 -10 40 0 42 -15 42 -275 0 -211 -2 -254
-16 -273 -8 -12 -22 -22 -30 -22 -8 0 -14 -4 -14 -10 0 -6 47 -10 121 -10
l121 0 -31 29 c-30 29 -31 31 -31 124 l0 96 55 -6 c176 -18 292 124 219 269
-24 46 -76 78 -146 88 -87 13 -308 13 -308 0z m297 -55 c31 -21 43 -54 43
-121 0 -64 -20 -118 -50 -134 -11 -6 -40 -10 -63 -8 l-42 3 -3 129 c-1 72 0
136 2 142 7 17 81 9 113 -11z"/>
<path d="M4380 4650 c-11 -11 -20 -27 -20 -35 0 -22 45 -65 68 -65 29 0 72 38
72 64 0 52 -80 76 -120 36z"/>
<path d="M5087 4655 c-64 -14 -78 -22 -53 -30 9 -3 23 -7 31 -10 13 -4 15 -42
15 -269 l0 -264 -26 -6 c-49 -13 -13 -21 87 -21 91 0 121 7 85 21 -8 3 -19 18
-26 33 -14 34 -9 153 6 158 6 2 44 -44 83 -102 l72 -105 75 0 c77 0 92 10 47
32 -24 11 -172 209 -173 231 0 10 83 94 125 126 38 29 22 41 -57 41 -54 0 -72
-10 -48 -25 21 -13 7 -40 -57 -106 -36 -38 -70 -69 -75 -69 -4 0 -8 86 -8 190
l0 190 -22 -1 c-13 -1 -49 -7 -81 -14z"/>
<path d="M5590 4659 c-78 -13 -79 -14 -42 -33 l32 -17 0 -258 c0 -257 0 -259
-22 -274 -22 -15 -17 -16 80 -16 56 -1 102 2 102 5 0 3 -11 15 -25 26 l-25 19
0 280 0 279 -22 -1 c-13 -1 -48 -5 -78 -10z"/>
<path d="M3440 4625 c-2 -22 -3 -47 -2 -55 0 -7 -6 -26 -14 -42 -16 -31 -18
-42 -5 -34 20 13 38 92 31 132 l-8 39 -2 -40z"/>
<path d="M7450 4620 c6 -11 13 -20 16 -20 2 0 0 9 -6 20 -6 11 -13 20 -16 20
-2 0 0 -9 6 -20z"/>
<path d="M7106 4595 c-9 -26 -7 -32 5 -12 6 10 9 21 6 23 -2 3 -7 -2 -11 -11z"/>
<path d="M7250 4525 c19 -19 36 -35 39 -35 3 0 -10 16 -29 35 -19 19 -36 35
-39 35 -3 0 10 -16 29 -35z"/>
<path d="M6756 4522 l-19 -27 26 24 c28 26 32 31 20 31 -5 0 -17 -13 -27 -28z"/>
<path d="M3291 4439 c-25 -39 -65 -88 -89 -110 -25 -21 -42 -39 -38 -39 3 0
24 17 47 37 38 35 135 170 127 178 -2 2 -23 -28 -47 -66z"/>
<path d="M5900 4478 c-26 -14 -57 -41 -75 -66 -25 -36 -30 -55 -33 -117 -8
-141 47 -220 165 -240 86 -14 213 50 213 107 0 24 -13 23 -36 -3 -42 -47 -120
-63 -174 -36 -34 17 -61 73 -58 121 l3 40 90 -3 c50 -1 111 1 138 5 43 5 47 8
47 32 0 44 -21 105 -43 131 -50 55 -159 68 -237 29z m135 -38 c10 -11 22 -43
25 -70 l6 -50 -83 0 c-91 0 -92 1 -72 61 25 74 85 102 124 59z"/>
<path d="M6304 4481 c-46 -21 -68 -61 -66 -118 2 -54 25 -79 111 -122 43 -22
81 -47 85 -56 26 -68 -44 -110 -115 -68 -16 10 -35 30 -42 45 -6 16 -20 28
-29 28 -15 0 -18 -9 -18 -49 0 -46 2 -50 37 -66 27 -13 53 -16 102 -13 113 8
165 51 163 135 0 58 -26 86 -117 128 -86 40 -102 56 -89 93 20 56 101 54 136
-3 29 -51 48 -46 48 13 0 43 -3 50 -25 60 -39 18 -134 14 -181 -7z"/>
<path d="M3354 4429 c-52 -86 -134 -166 -179 -175 -19 -3 -35 -10 -35 -15 0
-30 99 25 150 84 37 42 99 121 113 144 4 6 3 14 -2 17 -5 4 -26 -21 -47 -55z"/>
<path d="M4373 4473 c-60 -18 -66 -28 -23 -38 l30 -7 -2 -171 c-3 -166 -4
-172 -25 -183 -13 -6 -20 -14 -16 -17 8 -9 213 -9 213 -1 0 3 -11 15 -25 26
-24 19 -25 20 -27 211 l-3 192 -35 2 c-19 1 -59 -5 -87 -14z"/>
<path d="M4710 4466 c-66 -33 -103 -98 -108 -186 -8 -139 51 -219 174 -235 70
-10 131 9 176 55 21 21 38 47 38 59 0 27 -16 27 -30 0 -17 -32 -71 -59 -116
-59 -49 0 -90 28 -110 76 -17 41 -18 143 -2 196 28 95 133 106 173 18 11 -25
26 -41 42 -45 14 -3 27 -4 30 -1 3 2 1 28 -4 58 -7 47 -12 55 -43 70 -53 27
-162 24 -220 -6z"/>
<path d="M7300 4475 c1 -5 17 -28 37 -50 19 -22 31 -31 24 -20 -16 30 -61 81
-61 70z"/>
<path d="M7380 4450 c6 -11 13 -20 16 -20 2 0 0 9 -6 20 -6 11 -13 20 -16 20
-2 0 0 -9 6 -20z"/>
<path d="M3539 4393 l-24 -28 28 24 c25 23 32 31 24 31 -2 0 -14 -12 -28 -27z"/>
<path d="M6919 4383 l-24 -28 30 25 c17 14 32 26 34 28 2 1 0 2 -6 2 -5 0 -20
-12 -34 -27z"/>
<path d="M7175 4386 c10 -14 19 -26 22 -26 7 0 -17 39 -28 46 -6 3 -3 -5 6
-20z"/>
<path d="M2926 4378 c10 -14 21 -24 23 -22 3 3 -6 15 -18 27 l-24 22 19 -27z"/>
<path d="M7100 4381 c0 -6 4 -13 10 -16 6 -3 7 1 4 9 -7 18 -14 21 -14 7z"/>
<path d="M7076 4357 c3 -10 9 -15 12 -12 3 3 0 11 -7 18 -10 9 -11 8 -5 -6z"/>
<path d="M6920 4311 c5 -11 15 -23 21 -27 6 -3 3 5 -6 20 -20 30 -30 35 -15 7z"/>
<path d="M3492 4280 c0 -19 2 -27 5 -17 2 9 2 25 0 35 -3 9 -5 1 -5 -18z"/>
<path d="M3078 4273 c6 -2 18 -2 25 0 6 3 1 5 -13 5 -14 0 -19 -2 -12 -5z"/>
<path d="M2580 4265 c0 -12 45 -123 54 -132 7 -8 -15 55 -38 107 -8 19 -15 31
-16 25z"/>
<path d="M6965 4250 c10 -11 20 -20 23 -20 3 0 -3 9 -13 20 -10 11 -20 20 -23
20 -3 0 3 -9 13 -20z"/>
<path d="M7400 4184 c-24 -9 -29 -13 -14 -13 11 -1 29 6 40 14 22 17 20 17
-26 -1z"/>
<path d="M2591 4154 c0 -11 3 -14 6 -6 3 7 2 16 -1 19 -3 4 -6 -2 -5 -13z"/>
<path d="M2886 4147 c3 -10 9 -15 12 -12 3 3 0 11 -7 18 -10 9 -11 8 -5 -6z"/>
<path d="M2601 4127 c-1 -5 15 -41 35 -82 25 -52 38 -96 44 -147 l9 -73 -2 70
c-2 60 -9 83 -44 155 -23 47 -42 81 -42 77z"/>
<path d="M2640 4116 c0 -12 29 -76 34 -76 3 0 -2 17 -11 38 -16 38 -23 50 -23
38z"/>
<path d="M3300 4105 c-7 -9 -11 -17 -9 -20 3 -2 10 5 17 15 14 24 10 26 -8 5z"/>
<path d="M2848 4053 c6 -2 18 -2 25 0 6 3 1 5 -13 5 -14 0 -19 -2 -12 -5z"/>
<path d="M7143 4023 c18 -20 63 -40 51 -22 -3 5 -10 9 -16 9 -6 0 -21 8 -32
18 -21 17 -21 17 -3 -5z"/>
<path d="M3023 3999 c-12 -30 -11 -32 3 -17 9 8 14 23 12 33 -2 12 -7 7 -15
-16z"/>
<path d="M2930 4011 c0 -6 4 -13 10 -16 6 -3 7 1 4 9 -7 18 -14 21 -14 7z"/>
<path d="M2978 3973 c7 -3 16 -2 19 1 4 3 -2 6 -13 5 -11 0 -14 -3 -6 -6z"/>
<path d="M3410 3976 c0 -2 8 -10 18 -17 15 -13 16 -12 3 4 -13 16 -21 21 -21
13z"/>
<path d="M2810 3946 c0 -8 4 -17 9 -20 5 -4 7 3 4 14 -6 23 -13 26 -13 6z"/>
<path d="M3730 3938 c0 -20 1 -20 19 -4 11 10 25 15 30 11 14 -8 14 -115 1
-115 -5 0 -10 -4 -10 -10 0 -5 14 -10 32 -10 25 0 29 3 20 12 -7 7 -12 38 -12
71 0 58 0 59 25 53 14 -4 25 -2 25 4 0 6 -28 10 -65 10 -60 0 -65 -2 -65 -22z"/>
<path d="M5790 3950 c-10 -6 -11 -10 -2 -10 6 0 12 -7 12 -15 0 -9 -9 -15 -23
-15 -32 0 -47 -18 -47 -57 0 -38 17 -50 63 -45 l32 4 -3 74 c-4 76 -6 81 -32
64z m5 -90 c0 -39 -19 -50 -35 -21 -8 15 -8 27 0 42 16 29 35 18 35 -21z"/>
<path d="M5930 3945 c0 -8 5 -15 10 -15 6 0 10 7 10 15 0 8 -4 15 -10 15 -5 0
-10 -7 -10 -15z"/>
<path d="M6197 3954 c-8 -8 1 -24 14 -24 5 0 9 7 9 15 0 15 -12 20 -23 9z"/>
<path d="M4931 3941 c-9 -6 -13 -26 -12 -62 0 -29 -4 -58 -10 -66 -9 -10 -5
-13 22 -13 26 0 30 3 21 12 -19 19 -15 76 6 81 16 4 15 5 -1 6 -12 1 -17 7
-15 19 2 10 11 16 21 14 9 -2 17 2 17 8 0 12 -30 13 -49 1z"/>
<path d="M5180 3930 c0 -24 9 -26 25 -3 7 9 17 13 23 9 16 -9 15 -109 0 -124
-9 -9 -4 -12 22 -12 26 0 31 3 22 12 -15 15 -16 114 -2 123 6 4 17 2 24 -4 7
-6 16 -8 19 -5 15 16 -9 24 -69 24 -57 0 -64 -2 -64 -20z"/>
<path d="M6058 3928 c-9 -14 -14 -28 -11 -32 4 -3 8 -18 9 -32 2 -15 5 -33 8
-40 6 -16 46 -19 46 -4 0 6 -7 10 -15 10 -10 0 -15 11 -15 35 0 24 5 35 15 35
8 0 15 4 15 10 0 5 -6 7 -14 4 -10 -4 -16 2 -18 17 l-3 23 -17 -26z"/>
<path d="M2891 3919 c-7 -12 -10 -23 -8 -26 3 -3 11 5 17 17 6 12 10 23 8 25
-2 2 -10 -5 -17 -16z"/>
<path d="M4284 3922 c-16 -37 -3 -116 20 -120 10 -2 23 1 29 7 8 8 5 11 -11
11 -18 0 -22 6 -22 34 0 28 4 35 23 39 22 4 22 4 0 6 -14 1 -23 9 -26 24 l-4
22 -9 -23z"/>
<path d="M3431 3914 c0 -11 3 -14 6 -6 3 7 2 16 -1 19 -3 4 -6 -2 -5 -13z"/>
<path d="M6190 3910 c-10 -6 -11 -10 -2 -10 7 0 12 -13 12 -33 0 -18 -6 -39
-12 -46 -11 -11 -10 -13 5 -7 10 3 22 6 25 6 4 0 5 22 4 50 -4 52 -7 56 -32
40z"/>
<path d="M6326 3904 c-30 -29 -10 -94 28 -94 26 0 49 28 49 59 0 48 -44 68
-77 35z m52 -38 c3 -34 1 -37 -20 -34 -27 4 -37 41 -17 64 19 23 34 11 37 -30z"/>
<path d="M6488 3870 c-3 -45 -1 -50 17 -50 18 0 20 5 17 45 -3 36 -1 45 12 45
12 0 16 -10 16 -45 0 -31 4 -45 13 -45 13 0 14 15 8 88 -1 7 -16 12 -40 12
l-39 0 -4 -50z"/>
<path d="M3935 3899 c-10 -16 4 -24 17 -11 16 16 28 15 28 -3 0 -8 -6 -15 -14
-15 -17 0 -48 -39 -40 -52 3 -4 26 -8 52 -8 34 0 43 3 35 11 -6 6 -9 18 -6 25
3 8 2 25 -1 39 -5 20 -13 25 -36 25 -16 0 -32 -5 -35 -11z m42 -64 c-4 -8 -11
-15 -17 -15 -14 0 -13 27 3 33 16 6 21 1 14 -18z"/>
<path d="M4123 3904 c-22 -9 -14 -44 12 -56 26 -12 31 -23 16 -33 -5 -3 -17 2
-26 11 -18 19 -30 13 -22 -11 7 -16 44 -20 65 -6 20 12 11 44 -16 56 -24 11
-28 20 -11 30 6 4 17 -1 25 -11 14 -18 15 -18 12 1 -3 20 -31 29 -55 19z"/>
<path d="M4429 3889 c-22 -22 -20 -66 4 -81 19 -12 54 -9 66 6 10 12 6 14 -20
13 -43 -3 -50 21 -8 25 38 4 47 19 24 42 -22 22 -41 20 -66 -5z m51 -9 c0 -5
-9 -10 -21 -10 -11 0 -17 5 -14 10 3 6 13 10 21 10 8 0 14 -4 14 -10z"/>
<path d="M5405 3901 c-20 -4 -26 -9 -17 -14 15 -10 16 -59 0 -75 -9 -9 -5 -12
21 -12 28 0 31 2 22 14 -19 23 -10 71 13 71 11 0 21 6 23 13 5 13 -13 14 -62
3z"/>
<path d="M5567 3903 c-4 -3 -7 -13 -7 -21 0 -13 3 -13 18 1 10 10 22 14 25 10
13 -12 7 -22 -20 -35 -17 -8 -28 -21 -28 -33 0 -17 7 -20 41 -21 l42 -1 -5 41
c-3 23 -6 47 -9 54 -4 13 -46 17 -57 5z m43 -62 c0 -14 -18 -23 -30 -16 -6 4
-8 11 -5 16 8 12 35 12 35 0z"/>
<path d="M5925 3860 c0 -47 2 -50 25 -49 14 0 19 3 13 6 -8 3 -13 23 -13 49 0
29 -4 44 -13 44 -8 0 -12 -16 -12 -50z"/>
<path d="M4720 3881 c-23 -44 -5 -81 40 -81 14 0 31 5 38 12 7 7 12 24 12 38
0 14 -5 31 -12 38 -19 19 -66 15 -78 -7z m65 -11 c7 -21 -10 -60 -25 -60 -15
0 -32 39 -25 60 4 11 15 20 25 20 10 0 21 -9 25 -20z"/>
<path d="M7639 3873 c-13 -16 -12 -17 4 -4 16 13 21 21 13 21 -2 0 -10 -8 -17
-17z"/>
<path d="M6769 3843 c-13 -16 -12 -17 4 -4 9 7 17 15 17 17 0 8 -8 3 -21 -13z"/>
<path d="M2661 3798 c-11 -31 -25 -94 -18 -88 7 7 37 110 31 110 -2 0 -8 -10
-13 -22z"/>
<path d="M6595 3165 c0 -363 1 -510 2 -327 2 184 2 481 0 660 -1 180 -2 30 -2
-333z"/>
<path d="M7179 3779 l-24 -20 28 17 c15 9 27 18 27 20 0 8 -8 4 -31 -17z"/>
<path d="M7106 3720 c-20 -22 -36 -43 -36 -47 0 -4 3 -3 8 3 4 5 23 26 41 47
19 20 32 37 29 37 -3 0 -22 -18 -42 -40z"/>
<path d="M7206 3747 c3 -10 9 -15 12 -12 3 3 0 11 -7 18 -10 9 -11 8 -5 -6z"/>
<path d="M3377 3729 c7 -7 15 -10 18 -7 3 3 -2 9 -12 12 -14 6 -15 5 -6 -5z"/>
<path d="M7408 3723 c6 -2 18 -2 25 0 6 3 1 5 -13 5 -14 0 -19 -2 -12 -5z"/>
<path d="M7222 3690 c0 -19 2 -27 5 -17 2 9 2 25 0 35 -3 9 -5 1 -5 -18z"/>
<path d="M3091 3664 c0 -11 3 -14 6 -6 3 7 2 16 -1 19 -3 4 -6 -2 -5 -13z"/>
<path d="M3507 3655 c-15 -14 -24 -25 -19 -25 4 0 17 9 29 19 11 10 29 21 39
24 18 4 18 5 -1 6 -11 0 -33 -11 -48 -24z"/>
<path d="M7620 3676 c0 -2 7 -9 15 -16 9 -7 15 -8 15 -2 0 5 -7 12 -15 16 -8
3 -15 4 -15 2z"/>
<path d="M3590 3022 l0 -642 29 0 c16 0 107 -4 202 -10 639 -35 1686 -35 2369
0 102 5 244 12 315 16 72 3 132 8 134 10 9 8 -146 3 -415 -13 -375 -22 -1845
-25 -2311 -4 l-313 14 0 630 c1 346 -2 632 -5 635 -3 3 -5 -283 -5 -636z"/>
<path d="M2878 3629 c14 -16 20 -33 17 -45 -6 -18 -6 -18 5 0 10 15 8 22 -16
45 l-28 26 22 -26z"/>
<path d="M7207 3631 c-4 -17 -3 -21 5 -13 5 5 8 16 6 23 -3 8 -7 3 -11 -10z"/>
<path d="M7063 3540 c0 -25 2 -35 4 -22 2 12 2 32 0 45 -2 12 -4 2 -4 -23z"/>
<path d="M3172 3517 c31 -31 62 -57 70 -57 7 0 4 6 -7 12 -11 6 -27 19 -35 28
-8 8 -31 29 -50 45 -19 16 -10 3 22 -28z"/>
<path d="M7063 3435 c0 -22 2 -30 4 -17 2 12 2 30 0 40 -3 9 -5 -1 -4 -23z"/>
<path d="M3350 3429 c14 -6 39 -18 55 -26 l30 -14 -24 20 c-13 12 -29 21 -36
21 -7 0 -22 2 -32 5 -10 3 -7 0 7 -6z"/>
<path d="M7560 3382 c6 -13 14 -21 18 -18 3 4 -2 14 -12 24 -18 16 -18 16 -6
-6z"/>
<path d="M7320 3351 c-5 -11 -9 -32 -9 -48 1 -25 2 -25 8 7 4 20 11 41 15 48
4 7 5 12 2 12 -3 0 -10 -9 -16 -19z"/>
<path d="M7581 3304 c0 -11 3 -14 6 -6 3 7 2 16 -1 19 -3 4 -6 -2 -5 -13z"/>
<path d="M2629 3253 c-29 -35 -41 -53 -36 -53 2 0 17 16 31 35 28 36 31 49 5
18z"/>
<path d="M3109 3243 c12 -17 21 -36 21 -42 0 -6 5 -11 10 -11 17 0 11 13 -21
50 -30 34 -30 34 -10 3z"/>
<path d="M3116 3142 l-19 -27 24 22 c12 12 21 24 18 27 -2 2 -13 -8 -23 -22z"/>
<path d="M2991 3130 c0 -8 4 -22 9 -30 12 -18 12 -2 0 25 -6 13 -9 15 -9 5z"/>
<path d="M3041 3107 c-13 -21 -12 -21 5 -5 10 10 16 20 13 22 -3 3 -11 -5 -18
-17z"/>
<path d="M7079 3083 l-34 -38 38 34 c34 33 42 41 34 41 -2 0 -19 -17 -38 -37z"/>
<path d="M3264 3084 c-18 -14 -18 -14 6 -3 31 14 36 19 24 19 -6 0 -19 -7 -30
-16z"/>
<path d="M7106 3055 c-11 -8 -15 -15 -9 -15 6 0 16 7 23 15 16 19 11 19 -14 0z"/>
<path d="M7611 3054 c0 -11 3 -14 6 -6 3 7 2 16 -1 19 -3 4 -6 -2 -5 -13z"/>
<path d="M2652 3040 c0 -14 2 -19 5 -12 2 6 2 18 0 25 -3 6 -5 1 -5 -13z"/>
<path d="M3276 3049 c3 -5 14 -14 24 -19 16 -8 18 -7 14 4 -3 8 -14 16 -25 19
-10 3 -17 1 -13 -4z"/>
<path d="M3009 3023 c-7 -16 -13 -50 -15 -78 l-3 -50 13 61 c7 33 16 68 19 77
4 10 4 17 1 17 -2 0 -9 -12 -15 -27z"/>
<path d="M6995 3008 l-40 -43 43 40 c23 21 42 40 42 42 0 8 -9 0 -45 -39z"/>
<path d="M2890 2991 c5 -11 15 -23 21 -27 6 -3 3 5 -6 20 -20 30 -30 35 -15 7z"/>
<path d="M7029 2973 l-24 -28 28 24 c25 23 32 31 24 31 -2 0 -14 -12 -28 -27z"/>
<path d="M6924 2949 c-19 -22 -19 -22 4 -8 12 8 22 17 22 21 0 12 -6 9 -26
-13z"/>
<path d="M6961 2920 c-13 -11 -19 -20 -14 -20 6 0 18 9 28 20 23 25 17 25 -14
0z"/>
<path d="M2814 2896 c11 -9 24 -16 30 -16 12 0 7 5 -24 19 -24 11 -24 11 -6
-3z"/>
<path d="M2887 2889 c7 -7 15 -10 18 -7 3 3 -2 9 -12 12 -14 6 -15 5 -6 -5z"/>
<path d="M2982 2860 c0 -19 2 -27 5 -17 2 9 2 25 0 35 -3 9 -5 1 -5 -18z"/>
<path d="M2673 2845 c0 -22 2 -30 4 -17 2 12 2 30 0 40 -3 9 -5 -1 -4 -23z"/>
<path d="M2972 2800 c0 -14 2 -19 5 -12 2 6 2 18 0 25 -3 6 -5 1 -5 -13z"/>
<path d="M3141 2794 c0 -11 3 -14 6 -6 3 7 2 16 -1 19 -3 4 -6 -2 -5 -13z"/>
<path d="M3491 2767 c-1 -53 15 -91 50 -122 19 -16 18 -13 -5 18 -20 25 -31
56 -36 95 l-7 57 -2 -48z"/>
<path d="M7154 2784 c-19 -15 -19 -15 1 -6 11 5 27 12 35 15 13 5 13 6 -1 6
-8 1 -24 -6 -35 -15z"/>
<path d="M3840 2762 c-88 -43 -93 -173 -9 -232 52 -38 149 -10 149 42 0 25
-12 23 -38 -7 -50 -57 -122 -11 -122 79 0 77 38 118 90 96 15 -6 32 -22 38
-36 13 -26 38 -34 28 -8 -3 9 -6 24 -6 35 0 13 -12 25 -35 35 -44 18 -53 18
-95 -4z"/>
<path d="M6420 2752 c-69 -70 -39 -222 44 -222 51 0 79 37 84 110 5 71 -9 113
-44 129 -38 17 -53 14 -84 -17z m77 -33 c28 -53 8 -159 -28 -159 -27 0 -39 31
-39 99 0 85 37 119 67 60z"/>
<path d="M6052 2763 c-7 -3 -19 -18 -28 -35 -15 -29 -15 -32 5 -58 19 -27 19
-28 2 -45 -31 -27 -32 -65 -4 -93 21 -21 31 -24 66 -19 70 10 101 77 58 124
-20 21 -20 21 0 39 24 22 24 35 -2 68 -20 25 -61 34 -97 19z m66 -39 c16 -29
2 -55 -27 -52 -19 2 -27 10 -29 27 -6 37 38 56 56 25z m-3 -114 c35 -38 -17
-94 -53 -58 -24 24 -8 78 23 78 7 0 20 -9 30 -20z"/>
<path d="M6232 2754 c-22 -15 -31 -54 -12 -54 5 0 15 9 22 20 17 27 54 26 61
-2 8 -29 -9 -58 -33 -58 -12 0 -20 -7 -20 -16 0 -10 6 -13 19 -9 24 7 43 -17
39 -52 -2 -22 -9 -29 -30 -31 -19 -2 -28 2 -33 17 -3 12 -13 21 -21 21 -24 0
-28 -29 -8 -51 15 -17 27 -20 63 -16 50 6 68 20 76 62 5 22 1 36 -15 53 -19
20 -20 24 -6 38 55 55 -36 125 -102 78z"/>
<path d="M6816 2755 c-3 -9 -6 -22 -5 -28 0 -7 5 -1 10 12 5 13 8 26 5 28 -2
2 -6 -3 -10 -12z"/>
<path d="M5653 2748 c-71 -35 -69 -204 3 -237 35 -16 47 -14 77 10 50 39 60
153 19 206 -20 27 -68 37 -99 21z m64 -49 c25 -48 10 -155 -23 -166 -27 -9
-44 28 -44 97 0 94 36 131 67 69z"/>
<path d="M5841 2741 c-44 -44 -47 -166 -5 -212 26 -29 90 -23 116 12 37 50 36
161 -3 200 -25 25 -83 25 -108 0z m77 -23 c7 -7 12 -41 12 -83 0 -73 -10 -95
-42 -95 -25 0 -38 31 -38 89 0 86 31 126 68 89z"/>
<path d="M2961 2734 c0 -11 3 -14 6 -6 3 7 2 16 -1 19 -3 4 -6 -2 -5 -13z"/>
<path d="M3305 2720 c9 -16 18 -30 21 -30 2 0 -2 14 -11 30 -9 17 -18 30 -21
30 -2 0 2 -13 11 -30z"/>
<path d="M4641 2724 c-25 -32 -27 -57 -5 -79 15 -15 15 -18 -5 -39 -27 -29
-27 -48 2 -82 30 -34 98 -38 128 -7 28 27 28 81 1 104 -19 15 -20 18 -7 29 22
18 19 77 -4 90 -37 19 -88 12 -110 -16z m87 -33 c5 -30 -10 -45 -36 -37 -43
14 -37 69 7 64 19 -2 27 -10 29 -27z m-4 -97 c35 -35 -2 -85 -46 -62 -18 9
-25 58 -11 71 11 12 41 7 57 -9z"/>
<path d="M4861 2734 c-47 -34 -66 -135 -36 -193 16 -33 33 -41 80 -41 65 0
100 90 54 139 -18 19 -29 22 -60 18 -43 -6 -49 4 -23 41 17 25 42 29 50 7 8
-19 33 -19 40 0 16 40 -59 61 -105 29z m58 -118 c7 -8 11 -30 9 -48 -2 -26 -8
-34 -27 -36 -27 -4 -41 12 -41 49 0 43 35 64 59 35z"/>
<path d="M5042 2734 c-12 -8 -22 -26 -22 -40 0 -31 27 -32 32 -1 5 39 68 32
68 -8 0 -20 -19 -38 -42 -40 -37 -3 -35 -33 3 -37 42 -4 57 -40 29 -68 -23
-23 -46 -18 -53 12 -7 23 -40 21 -45 -3 -9 -47 98 -69 138 -29 26 26 26 81 0
105 -17 15 -17 19 -5 32 55 54 -37 123 -103 77z"/>
<path d="M5235 2725 c-61 -60 -9 -148 71 -122 18 6 20 4 16 -22 -2 -17 -13
-38 -24 -48 -19 -17 -21 -17 -43 11 -23 29 -45 28 -45 -3 0 -28 21 -41 65 -41
50 0 82 29 95 86 11 47 -2 118 -25 144 -26 29 -80 26 -110 -5z m87 -31 c15
-32 0 -59 -32 -59 -13 0 -28 8 -33 17 -15 23 6 68 33 68 12 0 25 -10 32 -26z"/>
<path d="M5436 2737 c-11 -8 -17 -22 -14 -37 4 -30 28 -39 28 -11 0 29 34 45
54 25 28 -27 12 -64 -26 -64 -12 0 -18 -7 -18 -21 0 -11 5 -17 10 -14 6 3 19
3 30 0 15 -5 20 -15 20 -40 0 -19 -5 -37 -11 -40 -18 -12 -56 4 -62 26 -7 26
-31 20 -35 -8 -4 -27 33 -53 76 -53 68 0 109 85 62 128 -18 17 -19 20 -5 32
20 17 19 53 -3 73 -22 20 -81 22 -106 4z"/>
<path d="M4440 2715 c-8 -16 -22 -36 -30 -43 -11 -10 -12 -15 -2 -18 7 -4 12
-27 12 -63 0 -69 15 -94 55 -89 32 3 47 28 17 28 -22 0 -32 25 -32 82 0 30 4
37 23 40 28 4 29 22 0 26 -16 2 -23 11 -25 35 l-4 32 -14 -30z"/>
<path d="M7158 2713 c6 -2 18 -2 25 0 6 3 1 5 -13 5 -14 0 -19 -2 -12 -5z"/>
<path d="M3240 2696 c0 -12 29 -76 34 -76 3 0 -2 17 -11 38 -16 38 -23 50 -23
38z"/>
<path d="M4031 2664 c-41 -53 -17 -143 43 -158 84 -21 139 101 75 165 -30 30
-92 26 -118 -7z m83 -10 c18 -18 21 -76 6 -105 -15 -28 -49 -24 -60 7 -14 36
-12 66 6 92 18 26 27 27 48 6z"/>
<path d="M4223 2682 c-35 -3 -43 -16 -18 -26 11 -4 15 -21 15 -66 0 -33 -4
-60 -10 -60 -5 0 -10 -4 -10 -9 0 -5 18 -11 40 -13 28 -2 40 0 40 9 0 7 -5 13
-10 13 -7 0 -10 22 -8 58 3 54 4 57 31 60 27 3 27 3 27 -57 0 -33 -5 -63 -11
-67 -16 -9 10 -24 44 -24 26 0 34 9 20 24 -4 3 -6 28 -4 54 1 26 -2 60 -8 74
-12 31 -49 45 -79 29 -11 -6 -22 -8 -24 -3 -2 4 -18 6 -35 4z"/>
<path d="M2970 2585 c0 -49 3 -86 6 -82 7 7 6 158 -1 165 -3 3 -5 -34 -5 -83z"/>
<path d="M4540 2645 c0 -29 34 -36 44 -9 8 21 -1 34 -25 34 -14 0 -19 -7 -19
-25z"/>
<path d="M3210 2610 c6 -11 20 -25 33 -31 18 -10 17 -6 -7 20 -34 36 -41 39
-26 11z"/>
<path d="M7608 2623 c6 -2 18 -2 25 0 6 3 1 5 -13 5 -14 0 -19 -2 -12 -5z"/>
<path d="M3280 2601 c0 -6 4 -13 10 -16 6 -3 7 1 4 9 -7 18 -14 21 -14 7z"/>
<path d="M3330 2566 c0 -14 40 -85 52 -92 7 -4 -1 15 -16 42 -33 55 -36 60
-36 50z"/>
<path d="M2671 2544 c0 -11 3 -14 6 -6 3 7 2 16 -1 19 -3 4 -6 -2 -5 -13z"/>
<path d="M2831 2544 c0 -11 3 -14 6 -6 3 7 2 16 -1 19 -3 4 -6 -2 -5 -13z"/>
<path d="M3271 2556 c2 -2 15 -9 29 -15 24 -11 24 -11 6 3 -16 13 -49 24 -35
12z"/>
<path d="M4540 2524 c0 -21 4 -25 23 -22 14 2 23 11 25 26 3 18 -1 22 -22 22
-21 0 -26 -5 -26 -26z"/>
<path d="M7322 2538 c-7 -7 -11 -21 -11 -32 1 -21 1 -21 6 -1 3 11 10 26 15
33 13 15 6 16 -10 0z"/>
<path d="M6565 2490 l-30 -8 33 -1 c17 0 32 4 32 9 0 6 -1 9 -2 9 -2 -1 -16
-5 -33 -9z"/>
<path d="M2903 2483 c9 -2 25 -2 35 0 9 3 1 5 -18 5 -19 0 -27 -2 -17 -5z"/>
<path d="M6275 2470 l-90 -6 75 -1 c41 0 118 3 170 7 l95 7 -80 -1 c-44 0
-120 -3 -170 -6z"/>
<path d="M3400 2440 c6 -11 13 -20 16 -20 2 0 0 9 -6 20 -6 11 -13 20 -16 20
-2 0 0 -9 6 -20z"/>
<path d="M2770 2396 c7 -7 13 -7 20 0 6 6 3 10 -10 10 -13 0 -16 -4 -10 -10z"/>
<path d="M2981 2337 c-13 -21 -12 -21 5 -5 10 10 16 20 13 22 -3 3 -11 -5 -18
-17z"/>
<path d="M3051 2324 c0 -11 3 -14 6 -6 3 7 2 16 -1 19 -3 4 -6 -2 -5 -13z"/>
<path d="M4150 2320 c6 -11 13 -20 16 -20 2 0 0 9 -6 20 -6 11 -13 20 -16 20
-2 0 0 -9 6 -20z"/>
<path d="M4386 2317 c3 -10 9 -15 12 -12 3 3 0 11 -7 18 -10 9 -11 8 -5 -6z"/>
<path d="M5760 2326 c0 -3 9 -10 20 -16 11 -6 20 -8 20 -6 0 3 -9 10 -20 16
-11 6 -20 8 -20 6z"/>
<path d="M4406 2265 c8 -37 14 -45 14 -19 0 10 -5 26 -10 34 -8 11 -9 7 -4
-15z"/>
<path d="M5898 2283 c7 -3 16 -2 19 1 4 3 -2 6 -13 5 -11 0 -14 -3 -6 -6z"/>
<path d="M6931 2274 c0 -11 3 -14 6 -6 3 7 2 16 -1 19 -3 4 -6 -2 -5 -13z"/>
<path d="M4170 2276 c0 -2 8 -10 18 -17 15 -13 16 -12 3 4 -13 16 -21 21 -21
13z"/>
</g>
</svg>
